<?xml version="1.0" encoding="UTF-8" standalone="no"?><!DOCTYPE svg PUBLIC "-//W3C//DTD SVG 1.1//EN" "http://www.w3.org/Graphics/SVG/1.1/DTD/svg11.dtd"><svg width="100%" height="100%" viewBox="0 0 98 130" version="1.1" xmlns="http://www.w3.org/2000/svg" xmlns:xlink="http://www.w3.org/1999/xlink" xml:space="preserve" xmlns:serif="http://www.serif.com/" style="fill-rule:evenodd;clip-rule:evenodd;stroke-linejoin:round;stroke-miterlimit:1.41421;"><path d="M2.627,30.11l0,89.758c0,2.585 2.089,4.679 4.67,4.679l58.165,0c2.58,0 4.669,-2.094 4.669,-4.679l0,-89.758l-67.504,0Z" style="fill:#fad905;fill-rule:nonzero;"/><path d="M2.626,116.028l0,3.84c0,2.585 2.09,4.679 4.671,4.679l58.165,0c2.579,0 4.669,-2.094 4.669,-4.679l0,-3.84l-67.505,0Z" style="fill:#fff;fill-rule:nonzero;"/><g><g><rect x="2.626" y="30.11" width="67.505" height="10.52" style="fill:#fff;"/><g><clipPath id="_clip1"><path d="M59.631,30.11l0,89.758c0,2.585 -2.09,4.679 -4.669,4.679l10.5,0c2.579,0 4.669,-2.094 4.669,-4.679l0,-89.758l-10.5,0Z" clip-rule="nonzero"/></clipPath><g clip-path="url(#_clip1)"><g opacity="0.300003"><rect x="49.962" y="25.109" width="25.169" height="104.438" style="fill:#88451e;"/></g></g></g><path d="M2.626,27.48c-1.449,0 -2.626,1.176 -2.626,2.63l0,89.758c0,4.031 3.274,7.311 7.297,7.311l58.165,0c4.021,0 7.293,-3.28 7.293,-7.311l0,-89.758c0,-1.454 -1.176,-2.63 -2.624,-2.63l-67.505,0Zm2.625,92.388l0,-87.127l62.255,0l0,87.127c0,1.128 -0.917,2.049 -2.044,2.049l-58.165,0c-1.129,0 -2.046,-0.921 -2.046,-2.049Z" style="fill:#2f2f31;fill-rule:nonzero;"/><path d="M26.081,9.014c-0.428,-0.058 -0.863,-0.098 -1.306,-0.098c-5.342,0 -9.671,4.338 -9.671,9.691c0,0.047 0.003,0.093 0.006,0.141c-0.456,-0.072 -0.913,-0.141 -1.39,-0.141c-4.882,0 -8.842,3.966 -8.842,8.86c0,0.924 0.158,1.808 0.422,2.644l9.495,0l0,14.164c0,2.744 2.221,4.968 4.959,4.968c2.739,0 4.959,-2.224 4.959,-4.968l0,-14.164l42.735,0c0.263,-0.838 0.43,-1.718 0.43,-2.644c0,-4.894 -3.957,-8.86 -8.842,-8.86c-0.474,0 -0.932,0.069 -1.388,0.141c0,-0.048 0.007,-0.094 0.007,-0.141c0,-5.353 -4.33,-9.691 -9.672,-9.691c-0.444,0 -0.877,0.04 -1.305,0.098c-1.896,-3.783 -5.788,-6.385 -10.3,-6.385c-4.509,0 -8.405,2.602 -10.297,6.385Z" style="fill:#fff;fill-rule:nonzero;"/><path d="M24.632,6.286c-5.831,0.065 -10.7,4.221 -11.88,9.73c-5.871,0.496 -10.498,5.441 -10.498,11.45c0,1.142 0.182,2.298 0.545,3.44c0.346,1.092 1.358,1.835 2.501,1.835l6.871,0l0,11.535c0,4.189 3.4,7.598 7.583,7.598c4.181,0 7.584,-3.409 7.584,-7.598l0,-11.535l40.11,0c1.146,0 2.159,-0.745 2.504,-1.842c0.369,-1.181 0.552,-2.305 0.552,-3.433c0,-6.008 -4.628,-10.954 -10.497,-11.448c-1.181,-5.511 -6.05,-9.665 -11.883,-9.732c-2.609,-3.917 -6.966,-6.286 -11.746,-6.286c-4.779,0 -9.136,2.369 -11.746,6.286Zm3.796,3.907c1.523,-3.044 4.568,-4.932 7.95,-4.932c3.383,0 6.429,1.89 7.952,4.932c0.503,1.003 1.597,1.571 2.694,1.427c0.315,-0.042 0.631,-0.075 0.958,-0.075c3.887,0 7.048,3.169 7.051,6.938c-0.005,0.065 -0.011,0.201 -0.011,0.265c0,0.768 0.338,1.501 0.923,2c0.584,0.5 1.366,0.712 2.117,0.597c0.319,-0.051 0.641,-0.109 0.974,-0.109c3.428,0 6.218,2.794 6.218,6.23l0,0.014l-40.541,0c-1.449,0 -2.626,1.176 -2.626,2.63l0,14.166c0,1.287 -1.047,2.337 -2.333,2.337c-1.287,0 -2.333,-1.05 -2.333,-2.337l0,-14.166c0,-1.454 -1.176,-2.63 -2.626,-2.63l-7.291,0l0,-0.014c0,-3.436 2.789,-6.23 6.218,-6.23c0.334,0 0.655,0.058 0.975,0.109c0.777,0.126 1.562,-0.13 2.15,-0.651c0.587,-0.521 0.908,-1.301 0.882,-2.088c0,-3.892 3.16,-7.061 7.046,-7.061c0.326,0 0.643,0.033 0.96,0.075c0.113,0.016 0.227,0.023 0.339,0.023c0.978,0 1.902,-0.552 2.354,-1.45Z" style="fill:#2f2f31;fill-rule:nonzero;"/><path d="M70.131,36.969l0,9.686l10.246,0c2.795,0 5.061,2.27 5.061,5.07l0,35.949c0,2.8 -2.266,5.072 -5.061,5.072l-10.246,0l0,9.684l11.541,0c7.234,0 13.098,-5.877 13.098,-13.124l0,-39.211c0,-7.249 -5.864,-13.126 -13.098,-13.126l-11.541,0Z" style="fill:#fff;fill-rule:nonzero;"/><path d="M70.131,34.339c-1.45,0 -2.625,1.176 -2.625,2.63l0,9.686c0,1.453 1.175,2.629 2.625,2.629l10.246,0c1.343,0 2.436,1.095 2.436,2.441l0,35.949c0,1.347 -1.093,2.441 -2.436,2.441l-10.246,0c-1.45,0 -2.625,1.177 -2.625,2.631l0,9.684c0,1.451 1.175,2.629 2.625,2.629l11.541,0c8.669,0 15.724,-7.067 15.724,-15.753l0,-39.211c0,-8.688 -7.055,-15.756 -15.724,-15.756l-11.541,0Zm2.624,5.261l8.917,0c5.777,0 10.473,4.707 10.473,10.495l0,39.211c0,5.786 -4.696,10.494 -10.473,10.494l-8.917,0l0,-4.425l7.622,0c4.238,0 7.687,-3.454 7.687,-7.701l0,-35.949c0,-4.246 -3.449,-7.7 -7.687,-7.7l-7.622,0l0,-4.425Z" style="fill:#2f2f31;fill-rule:nonzero;"/><path d="M2.626,113.461c-1.448,0 -2.626,1.177 -2.626,2.63c0,1.451 1.178,2.629 2.626,2.629l67.505,0c1.449,0 2.624,-1.178 2.624,-2.629c0,-1.453 -1.175,-2.63 -2.624,-2.63l-67.505,0Z" style="fill:#2f2f31;fill-rule:nonzero;"/></g></g></svg>