<?xml version="1.0" encoding="UTF-8" standalone="no"?><!DOCTYPE svg PUBLIC "-//W3C//DTD SVG 1.1//EN" "http://www.w3.org/Graphics/SVG/1.1/DTD/svg11.dtd"><svg width="100%" height="100%" viewBox="0 0 69 130" version="1.1" xmlns="http://www.w3.org/2000/svg" xmlns:xlink="http://www.w3.org/1999/xlink" xml:space="preserve" xmlns:serif="http://www.serif.com/" style="fill-rule:evenodd;clip-rule:evenodd;stroke-linejoin:round;stroke-miterlimit:1.41421;"><path d="M32.949,5.001l-20.859,0l-1.405,5.787c0,0 -6.466,8.101 -8.039,13.309l0,89.687c0,0 3.935,11.147 9.444,11.147l41.719,0c5.51,0 9.444,-11.147 9.444,-11.147l0,-89.687c-1.574,-5.208 -8.039,-13.309 -8.039,-13.309l-1.405,-5.787l-20.86,0Z" style="fill:#fad905;fill-rule:nonzero;"/><path d="M32.949,5.001l-20.859,0l-1.405,5.787c0,0 -6.466,8.101 -8.04,13.309l60.608,0c-1.574,-5.208 -8.039,-13.309 -8.039,-13.309l-1.404,-5.787l-20.861,0Z" style="fill:#fff;fill-rule:nonzero;"/><path d="M2.646,113.784c0,0 3.935,11.147 9.444,11.147l41.719,0c5.51,0 9.447,-11.147 9.447,-11.147l-60.61,0Z" style="fill:#fff;fill-rule:nonzero;"/><g><clipPath id="_clip1"><path d="M43.229,5l1.405,5.787c0,0 6.467,8.101 8.043,13.309l0,89.688c0,0 -3.938,11.147 -9.448,11.147l10.58,0c5.51,0 9.447,-11.147 9.447,-11.147l0,-89.688c-1.577,-5.208 -8.042,-13.309 -8.042,-13.309l-1.405,-5.787l-10.58,0Z" clip-rule="nonzero"/></clipPath><g clip-path="url(#_clip1)"><g opacity="0.300003"><rect x="38.229" y="0" width="30.026" height="129.931" style="fill:#88451e;"/></g></g></g><path d="M12.089,2.377c-1.221,0 -2.282,0.829 -2.569,2.008l-1.272,5.237c-1.444,1.862 -6.645,8.786 -8.137,13.719c-0.075,0.246 -0.111,0.5 -0.111,0.754l0,89.69c0,0.296 0.05,0.589 0.148,0.867c0.762,2.155 4.914,12.904 11.941,12.904l41.721,0c7.028,0 11.18,-10.749 11.942,-12.904c0.099,-0.278 0.147,-0.571 0.147,-0.867l0,-89.69c0,-0.254 -0.037,-0.508 -0.11,-0.754c-1.494,-4.933 -6.695,-11.857 -8.138,-13.719l-1.27,-5.237c-0.288,-1.179 -1.349,-2.008 -2.571,-2.008l-41.721,0Zm-6.8,110.946l0,-88.817c1.33,-3.896 5.808,-10.005 7.469,-12.09c0.238,-0.297 0.409,-0.643 0.499,-1.013l0.917,-3.777l37.551,0l0.917,3.777c0.09,0.37 0.261,0.716 0.499,1.015c1.661,2.081 6.136,8.185 7.469,12.088l0,88.817c-1.467,3.895 -4.522,8.983 -6.8,8.983l-41.721,0c-2.277,0 -5.332,-5.088 -6.8,-8.983Z" style="fill:#2f2f31;fill-rule:nonzero;"/><path d="M9.086,5.001l48.02,0l-48.02,0Z" style="fill:#fff;fill-rule:nonzero;"/><path d="M9.087,2.376c-1.46,0 -2.645,1.174 -2.645,2.625c0,1.45 1.185,2.624 2.645,2.624l48.019,0c1.46,0 2.645,-1.174 2.645,-2.624c0,-1.451 -1.185,-2.625 -2.645,-2.625l-48.019,0Z" style="fill:#2f2f31;fill-rule:nonzero;"/><path d="M10.474,12.538l44.951,0l-44.951,0Z" style="fill:#fff;fill-rule:nonzero;"/><path d="M10.474,9.912c-1.461,0 -2.645,1.175 -2.645,2.626c0,1.45 1.184,2.624 2.645,2.624l44.951,0c1.461,0 2.645,-1.174 2.645,-2.624c0,-1.451 -1.184,-2.626 -2.645,-2.626l-44.951,0Z" style="fill:#2f2f31;fill-rule:nonzero;"/><path d="M2.645,113.784l60.61,0l-60.61,0Z" style="fill:#fff;fill-rule:nonzero;"/><path d="M2.645,111.16c-1.461,0 -2.645,1.173 -2.645,2.624c0,1.452 1.184,2.625 2.645,2.625l60.609,0c1.461,0 2.645,-1.173 2.645,-2.625c0,-1.451 -1.184,-2.624 -2.645,-2.624l-60.609,0Z" style="fill:#2f2f31;fill-rule:nonzero;"/><path d="M2.645,24.096l60.61,0l-60.61,0Z" style="fill:#fff;fill-rule:nonzero;"/><path d="M2.645,21.471c-1.461,0 -2.645,1.175 -2.645,2.625c0,1.451 1.184,2.626 2.645,2.626l60.609,0c1.461,0 2.645,-1.175 2.645,-2.626c0,-1.45 -1.184,-2.625 -2.645,-2.625l-60.609,0Z" style="fill:#2f2f31;fill-rule:nonzero;"/><path d="M17.798,68c0,-8.3 6.79,-15.039 15.153,-15.039c8.362,0 15.152,6.739 15.152,15.039c0,8.301 -6.79,15.04 -15.152,15.04c-8.363,0 -15.153,-6.739 -15.153,-15.04Z" style="fill:#7f572c;"/><path d="M15.151,68.001c0,9.741 7.986,17.664 17.798,17.664c9.813,0 17.799,-7.923 17.799,-17.664c0,-9.74 -7.986,-17.664 -17.799,-17.664c-9.812,0 -17.798,7.924 -17.798,17.664Zm5.29,0c0,-6.846 5.613,-12.415 12.508,-12.415c6.897,0 12.51,5.569 12.51,12.415c0,6.844 -5.613,12.415 -12.51,12.415c-6.895,0 -12.508,-5.571 -12.508,-12.415Z" style="fill:#2f2f31;fill-rule:nonzero;"/></svg>