<?xml version="1.0" encoding="UTF-8" standalone="no"?><!DOCTYPE svg PUBLIC "-//W3C//DTD SVG 1.1//EN" "http://www.w3.org/Graphics/SVG/1.1/DTD/svg11.dtd"><svg width="100%" height="100%" viewBox="0 0 74 129" version="1.1" xmlns="http://www.w3.org/2000/svg" xmlns:xlink="http://www.w3.org/1999/xlink" xml:space="preserve" xmlns:serif="http://www.serif.com/" style="fill-rule:evenodd;clip-rule:evenodd;stroke-linejoin:round;stroke-miterlimit:1.41421;"><clipPath id="_clip1"><path d="M35.477,27.701l-29.437,0c0,0 -8.897,25.82 2.025,45.844c10.924,20.026 10.593,50.427 10.593,50.427l33.639,0c0,0 -0.331,-30.401 10.593,-50.427c10.921,-20.024 2.024,-45.844 2.024,-45.844l-29.437,0Z" clip-rule="nonzero"/></clipPath><g clip-path="url(#_clip1)"><rect x="-2.375" y="22.701" width="75.705" height="106.271" style="fill:#180000;"/></g><path d="M35.477,27.701l-29.437,0c0,0 -1.424,4.149 -2.434,10.4l63.742,0c-1.009,-6.251 -2.434,-10.4 -2.434,-10.4l-29.437,0Z" style="fill:#fff;fill-rule:nonzero;"/><path d="M18.343,115.439c0.35,5.186 0.316,8.533 0.316,8.533l33.637,0c0,0 -0.033,-3.347 0.315,-8.533l-34.268,0Z" style="fill:#fff;fill-rule:nonzero;"/><g><clipPath id="_clip2"><path d="M54.523,27.701c0,0 8.898,25.82 -2.024,45.844c-10.923,20.026 -10.593,50.427 -10.593,50.427l10.391,0c0,0 -0.331,-30.401 10.593,-50.427c10.921,-20.024 2.024,-45.844 2.024,-45.844l-10.391,0Z" clip-rule="nonzero"/></clipPath><g clip-path="url(#_clip2)"><g opacity="0.300003"><rect x="36.905" y="22.701" width="36.425" height="106.271" style="fill:#88451e;"/></g></g></g><clipPath id="_clip3"><path d="M6.042,25.1c-1.109,0 -2.094,0.703 -2.456,1.753c-0.379,1.099 -9.142,27.146 2.199,47.939c10.463,19.181 10.28,48.854 10.276,49.151c-0.006,0.696 0.263,1.364 0.751,1.857c0.487,0.494 1.153,0.771 1.847,0.771l33.637,0c0.694,0 1.359,-0.277 1.848,-0.771c0.486,-0.493 0.757,-1.161 0.749,-1.857c-0.003,-0.297 -0.187,-29.97 10.276,-49.151c11.34,-20.793 2.579,-46.84 2.201,-47.939c-0.363,-1.05 -1.349,-1.753 -2.455,-1.753l-58.873,0Zm4.302,47.199c-8.647,-15.857 -4.052,-36.006 -2.376,-41.998l55.019,0c1.684,5.983 6.291,26.103 -2.378,41.998c-9.353,17.151 -10.7,41.132 -10.884,49.072l-28.494,0c-0.184,-7.94 -1.533,-31.921 -10.887,-49.072Z" clip-rule="nonzero"/></clipPath><g clip-path="url(#_clip3)"><rect x="-5" y="20.1" width="80.955" height="111.471" style="fill:#2f2f31;"/></g><path d="M26.035,8.523c-0.397,-0.054 -0.802,-0.091 -1.215,-0.091c-4.961,0 -8.981,4.026 -8.981,8.994c0,0.042 0.004,0.086 0.004,0.128c-0.425,-0.066 -0.848,-0.128 -1.29,-0.128c-4.535,0 -8.213,3.679 -8.213,8.22c0,0.857 0.147,1.678 0.393,2.453l8.819,0l0,13.144c0,2.547 2.061,4.61 4.607,4.61c2.542,0 4.604,-2.063 4.604,-4.61l0,-13.144l39.696,0c0.245,-0.777 0.4,-1.595 0.4,-2.453c0,-4.541 -3.677,-8.22 -8.213,-8.22c-0.442,0 -0.866,0.062 -1.291,0.128c0.003,-0.042 0.008,-0.086 0.008,-0.128c0,-4.968 -4.021,-8.994 -8.985,-8.994c-0.412,0 -0.812,0.037 -1.213,0.091c-1.758,-3.509 -5.376,-5.924 -9.565,-5.924c-4.188,0 -7.808,2.415 -9.565,5.924Z" style="fill:#fff;fill-rule:nonzero;"/><path d="M35.452,0c-4.41,0.048 -8.417,2.237 -10.847,5.834c-5.416,0.101 -9.934,3.939 -11.084,9.041c-5.478,0.522 -9.778,5.153 -9.778,10.771c0,1.071 0.172,2.161 0.514,3.239c0.342,1.08 1.342,1.815 2.476,1.815l6.221,0l0,10.544c0,3.975 3.232,7.209 7.205,7.209c3.97,0 7.202,-3.234 7.202,-7.209l0,-10.544l37.098,0c1.133,0 2.135,-0.737 2.477,-1.818c0.35,-1.113 0.521,-2.172 0.521,-3.236c0,-5.618 -4.3,-10.249 -9.778,-10.771c-1.15,-5.102 -5.668,-8.94 -11.084,-9.041c-2.43,-3.597 -6.437,-5.786 -10.847,-5.834l-0.296,0Zm-7.094,9.689c1.386,-2.77 4.16,-4.489 7.242,-4.489c3.082,0 5.856,1.719 7.242,4.489c0.498,0.994 1.582,1.558 2.671,1.411c0.286,-0.039 0.572,-0.067 0.865,-0.067c3.521,0 6.388,2.868 6.382,6.417c-0.03,0.779 0.287,1.528 0.868,2.044c0.578,0.519 1.353,0.747 2.127,0.629c0.292,-0.045 0.585,-0.097 0.891,-0.097c3.048,0 5.536,2.443 5.615,5.474l-37.498,0c-1.433,0 -2.597,1.165 -2.597,2.599l0,13.145c0,1.109 -0.9,2.009 -2.007,2.009c-1.108,0 -2.011,-0.9 -2.011,-2.009l0,-13.145c0,-1.434 -1.163,-2.599 -2.596,-2.599l-6.613,0c0.079,-3.031 2.567,-5.474 5.614,-5.474c0.307,0 0.6,0.052 0.892,0.097c0.765,0.125 1.547,-0.123 2.125,-0.641c0.58,-0.518 0.896,-1.279 0.864,-2.056c0,-3.525 2.867,-6.393 6.387,-6.393c0.294,0 0.582,0.028 0.865,0.067c0.115,0.015 0.23,0.023 0.344,0.023c0.97,0 1.882,-0.545 2.328,-1.434Z" style="fill:#2f2f31;fill-rule:nonzero;"/><path d="M19.869,115.439l32.74,0l-32.74,0Z" style="fill:#fff;fill-rule:nonzero;"/><path d="M19.87,112.839c-1.435,0 -2.598,1.164 -2.598,2.6c0,1.435 1.163,2.599 2.598,2.599l32.739,0c1.434,0 2.598,-1.164 2.598,-2.599c0,-1.436 -1.164,-2.6 -2.598,-2.6l-32.739,0Z" style="fill:#2f2f31;fill-rule:nonzero;"/></svg>