<?xml version="1.0" encoding="UTF-8" standalone="no"?><!DOCTYPE svg PUBLIC "-//W3C//DTD SVG 1.1//EN" "http://www.w3.org/Graphics/SVG/1.1/DTD/svg11.dtd"><svg width="100%" height="100%" viewBox="0 0 47 131" version="1.1" xmlns="http://www.w3.org/2000/svg" xmlns:xlink="http://www.w3.org/1999/xlink" xml:space="preserve" xmlns:serif="http://www.serif.com/" style="fill-rule:evenodd;clip-rule:evenodd;stroke-linejoin:round;stroke-miterlimit:1.41421;"><path d="M21.82,11.205l-7.363,0c0,0 -4.009,28.855 -5.053,41.955c-0.253,3.189 -1.101,6.314 -2.672,9.104c-1.986,3.534 -4.413,9.801 -4.109,19.059c0.386,11.771 0.168,29.766 0.043,39.27c-0.034,2.621 1.932,4.755 4.369,4.755l29.568,0c2.438,0 4.404,-2.134 4.371,-4.755c-0.127,-9.504 -0.345,-27.499 0.042,-39.27c0.302,-9.258 -2.123,-15.525 -4.11,-19.059c-1.57,-2.79 -2.419,-5.915 -2.672,-9.104c-1.044,-13.1 -5.052,-41.955 -5.052,-41.955l-7.362,0Z" style="fill:#fad905;fill-rule:nonzero;"/><path d="M21.82,11.205l-7.362,0c0,0 -2.011,14.47 -3.556,27.569l21.833,0c-1.543,-13.099 -3.553,-27.569 -3.553,-27.569l-7.362,0Z" style="fill:#fff;fill-rule:nonzero;"/><path d="M3.083,73.408c-0.356,2.352 -0.557,4.965 -0.459,7.915c0.316,9.694 0.225,23.595 0.112,33.514c3.505,1.416 17.137,5.841 38.165,-0.151c-0.111,-9.908 -0.202,-23.722 0.114,-33.363c0.095,-2.882 -0.096,-5.443 -0.435,-7.754c-2.805,-1.395 -11.319,-5.293 -18.985,-5.293c-7.395,0 -15.464,3.623 -18.512,5.132Z" style="fill:#9fcd5a;fill-rule:nonzero;"/><g><clipPath id="_clip1"><path d="M21.82,11.205l-1.296,0c0,0 4.008,28.855 5.052,41.955c0.253,3.189 1.102,6.314 2.671,9.104c1.987,3.534 4.413,9.801 4.11,19.059c-0.386,11.771 -0.167,29.766 -0.042,39.27c0.034,2.621 -1.933,4.755 -4.37,4.755l8.658,0c2.438,0 4.404,-2.134 4.371,-4.755c-0.127,-9.504 -0.345,-27.499 0.042,-39.27c0.302,-9.258 -2.123,-15.525 -4.11,-19.059c-1.57,-2.79 -2.419,-5.915 -2.672,-9.104c-1.044,-13.1 -5.052,-41.955 -5.052,-41.955l-7.362,0Z" clip-rule="nonzero"/></clipPath><g clip-path="url(#_clip1)"><g opacity="0.300003"><rect x="15.523" y="6.206" width="30.518" height="124.142" style="fill:#88451e;"/></g></g></g><path d="M14.457,8.62c-1.297,0 -2.395,0.951 -2.573,2.23c-0.041,0.29 -4.031,29.081 -5.069,42.105c-0.239,2.994 -1.029,5.7 -2.348,8.046c-2.066,3.671 -4.442,9.807 -4.467,18.615l0,0.27c0.001,0.499 0.01,1.006 0.027,1.521c0.399,12.121 0.147,31.064 0.042,39.153c-0.027,2.002 0.747,3.945 2.124,5.332c1.304,1.318 3.023,2.042 4.842,2.042l29.568,0c1.819,0 3.537,-0.724 4.842,-2.04c1.376,-1.388 2.15,-3.332 2.126,-5.334c-0.107,-8.089 -0.356,-27.032 0.04,-39.153c0.015,-0.443 0.024,-0.88 0.027,-1.31l0,-0.692c-0.062,-8.695 -2.418,-14.763 -4.465,-18.404c-1.322,-2.346 -2.111,-5.052 -2.35,-8.046c-1.037,-13.024 -5.029,-41.815 -5.068,-42.105c-0.179,-1.279 -1.276,-2.23 -2.573,-2.23l-14.725,0Zm-8.566,113.641c-0.41,-0.411 -0.637,-1.006 -0.628,-1.634c0.106,-8.124 0.357,-27.149 -0.045,-39.388c-0.28,-8.583 1.902,-14.369 3.781,-17.71c1.689,-3.002 2.696,-6.422 2.994,-10.164c0.856,-10.766 3.774,-32.554 4.733,-39.574l10.187,0c0.957,7.02 3.875,28.808 4.732,39.574c0.298,3.742 1.306,7.162 2.994,10.163c1.879,3.342 4.061,9.128 3.781,17.711c-0.4,12.239 -0.151,31.264 -0.044,39.387c0.007,0.629 -0.22,1.224 -0.628,1.635c-0.227,0.229 -0.609,0.501 -1.145,0.501l-29.568,0c-0.535,0 -0.918,-0.272 -1.144,-0.501Zm35.142,-40.938l-0.017,0l0.017,0Z" style="fill:#2f2f31;fill-rule:nonzero;"/><path d="M17.108,2.586c-2.946,0 -5.334,2.375 -5.334,5.307l0,3.312l19.657,0l0,-3.312c0,-2.932 -2.388,-5.307 -5.333,-5.307l-8.99,0Z" style="fill:#7f572c;fill-rule:nonzero;"/><path d="M16.989,0c-4.319,0.063 -7.812,3.581 -7.812,7.893l0,3.312c0,1.429 1.165,2.586 2.598,2.586l19.657,0c1.433,0 2.596,-1.157 2.596,-2.586l0,-3.312c0,-4.312 -3.493,-7.83 -7.813,-7.893l-9.226,0Zm-2.616,7.893c0,-1.501 1.226,-2.721 2.734,-2.721l8.99,0c1.511,0 2.736,1.22 2.736,2.721l0,0.727l-14.46,0l0,-0.727Z" style="fill:#2f2f31;fill-rule:nonzero;"/><path d="M13.329,19.546l16.98,0l-16.98,0Z" style="fill:#fff;fill-rule:nonzero;"/><path d="M13.329,16.96c-1.435,0 -2.597,1.157 -2.597,2.586c0,1.429 1.162,2.585 2.597,2.585l16.98,0c1.434,0 2.598,-1.156 2.598,-2.585c0,-1.429 -1.164,-2.586 -2.598,-2.586l-16.98,0Z" style="fill:#2f2f31;fill-rule:nonzero;"/><path d="M14.121,92.477c0,-4.281 3.492,-7.757 7.793,-7.757c4.301,0 7.793,3.476 7.793,7.757c0,4.282 -3.492,7.758 -7.793,7.758c-4.301,0 -7.793,-3.476 -7.793,-7.758Z" style="fill:#7f572c;"/><path d="M11.524,92.477c0,5.704 4.659,10.345 10.389,10.345c5.731,0 10.392,-4.641 10.392,-10.345c0,-5.703 -4.661,-10.344 -10.392,-10.344c-5.73,0 -10.389,4.641 -10.389,10.344Zm5.194,0c0,-2.851 2.331,-5.171 5.195,-5.171c2.864,0 5.197,2.32 5.197,5.171c0,2.853 -2.333,5.173 -5.197,5.173c-2.864,0 -5.195,-2.32 -5.195,-5.173Z" style="fill:#2f2f31;fill-rule:nonzero;"/><path d="M1.928,71.092c-0.761,0.377 -1.287,1.097 -1.415,1.931c-0.419,2.79 -0.58,5.532 -0.486,8.383c0.247,7.512 0.283,18.438 0.112,33.401c-0.013,1.066 0.632,2.027 1.621,2.427c2.387,0.962 8.77,3.093 18.469,3.093c5.939,0 13.121,-0.8 21.386,-3.156c1.126,-0.319 1.897,-1.35 1.882,-2.514c-0.166,-14.915 -0.13,-25.791 0.115,-33.251c0.092,-2.782 -0.059,-5.468 -0.461,-8.209c-0.121,-0.837 -0.649,-1.563 -1.408,-1.94c-3.366,-1.675 -12.063,-5.566 -20.149,-5.566c-7.912,0 -16.391,3.778 -19.666,5.401Zm3.426,41.944c0.147,-14.106 0.104,-24.521 -0.136,-31.796c-0.067,-2.077 0.016,-4.088 0.252,-6.107c3.503,-1.627 10.118,-4.269 16.124,-4.269c6.226,0 13.286,2.892 16.592,4.426c0.224,1.975 0.3,3.932 0.234,5.95c-0.237,7.194 -0.282,17.506 -0.138,31.479c-6.996,1.822 -13.061,2.451 -18.102,2.451c-7,0 -12.025,-1.213 -14.826,-2.134Z" style="fill:#2f2f31;fill-rule:nonzero;"/></svg>