<?xml version="1.0" encoding="iso-8859-1"?>
<!-- Generator: Adobe Illustrator 19.0.0, SVG Export Plug-In . SVG Version: 6.00 Build 0)  -->
<svg version="1.1" id="Capa_1" xmlns="http://www.w3.org/2000/svg" xmlns:xlink="http://www.w3.org/1999/xlink" x="0px" y="0px"
	 viewBox="0 0 512.001 512.001" style="enable-background:new 0 0 512.001 512.001;" xml:space="preserve">
<path style="fill:#77D057;" d="M94.825,28.987c-3.458-3.121-1.043-8.851,3.607-8.571l22.445,1.352
	c35.667,2.149,59.744,21.392,59.814,21.448c4.377,8.631,8.091,17.884,11.245,27.312C151.616,74.956,112.424,44.871,94.825,28.987z"
	/>
<path style="fill:#68B543;" d="M259.397,17.959l-21.064,7.866c-27.966,10.444-44.689,29.91-49.467,36.08
	c3.43,9.07,6.297,18.434,8.687,27.678c33.139-12.615,56.98-46.405,67.802-64.483C267.749,21.101,263.764,16.328,259.397,17.959z"/>
<path style="fill:#DFEDE7;" d="M205.143,504.45h154.933c3.4,0,6.196-2.677,6.345-6.073l15.858-362.345
	c0.158-3.613-2.728-6.629-6.345-6.629H189.285c-3.617,0-6.503,3.016-6.345,6.629l15.858,362.345
	C198.946,501.773,201.743,504.45,205.143,504.45z"/>
<path style="fill:#D7E0DC;" d="M375.934,129.403H326.82L310.406,504.45h49.669c3.4,0,6.196-2.677,6.345-6.073l15.858-362.345
	C382.437,132.418,379.551,129.403,375.934,129.403z"/>
<path style="fill:#FC502A;" d="M380.601,174.362L366.42,498.377c-0.149,3.396-2.945,6.073-6.345,6.073H205.143
	c-3.4,0-6.196-2.677-6.345-6.073l-14.181-324.015H380.601z"/>
<path style="fill:#FDC74F;" d="M230.73,189.508c1.536,1.811,4.274,1.921,5.985,0.274c26.034-25.069,28.411-66.398,4.702-94.337
	s-64.874-32.319-93.845-10.711c-1.903,1.42-2.239,4.139-0.703,5.95L230.73,189.508z"/>
<path style="fill:#FFFFBB;" d="M221.45,178.572c21.242-18.034,23.847-49.873,5.817-71.12s-49.868-23.857-71.118-5.833
	L221.45,178.572z"/>
<path style="fill:#B0EFFE;" d="M416.834,37.701l-14.795-9.438c-2.008-1.281-4.674-0.692-5.955,1.316l-92.365,144.783h31.047
	L418.15,43.656C419.431,41.648,418.842,38.982,416.834,37.701z"/>
<path style="fill:#E52D15;" d="M366.421,498.377l14.181-324.015h-55.749l-14.446,330.089h49.669c1.062,0,2.066-0.262,2.948-0.725
	C364.965,502.707,366.319,500.712,366.421,498.377z"/>
<path style="fill:#DFEDE7;" d="M282.609,472.553c32.982,0,62.941-1.398,85.103-3.675l-1.291,29.498
	c-0.149,3.396-2.945,6.073-6.345,6.073H205.143c-3.4,0-6.196-2.677-6.345-6.073l-1.291-29.498
	C219.668,471.156,249.627,472.553,282.609,472.553z"/>
<path style="fill:#D7E0DC;" d="M363.82,503.221c0.152-0.111,0.298-0.229,0.439-0.352c0.047-0.041,0.096-0.081,0.142-0.123
	c0.177-0.164,0.345-0.338,0.502-0.522c0.029-0.034,0.055-0.072,0.084-0.107c0.127-0.156,0.247-0.317,0.36-0.484
	c0.04-0.06,0.08-0.121,0.118-0.182c0.107-0.171,0.206-0.348,0.296-0.53c0.021-0.041,0.044-0.081,0.064-0.122
	c0.104-0.222,0.194-0.451,0.273-0.686c0.02-0.06,0.036-0.122,0.054-0.183c0.056-0.186,0.103-0.375,0.142-0.567
	c0.014-0.071,0.029-0.142,0.042-0.215c0.042-0.252,0.074-0.508,0.086-0.769l0,0l0.096-2.189l1.195-27.309
	c-15.399,1.582-34.567,2.738-55.893,3.298l-1.412,32.274h49.669c0.243,0,0.482-0.017,0.719-0.044
	c0.074-0.008,0.146-0.022,0.219-0.032c0.164-0.024,0.325-0.054,0.485-0.09c0.079-0.018,0.158-0.038,0.236-0.059
	c0.157-0.043,0.312-0.092,0.464-0.146c0.067-0.024,0.135-0.045,0.201-0.072c0.213-0.084,0.423-0.176,0.625-0.282
	c0.217-0.114,0.424-0.244,0.626-0.382C363.708,503.304,363.764,503.262,363.82,503.221z"/>
<path d="M214.269,128.385l2.726-2.312c3.179-2.698,3.571-7.463,0.873-10.642c-2.697-3.179-7.461-3.57-10.642-0.874l-2.726,2.312
	c-3.179,2.698-3.571,7.463-0.873,10.642c1.493,1.761,3.62,2.666,5.762,2.666C211.114,130.177,212.849,129.589,214.269,128.385z"/>
<path d="M215.694,132.817c-4.161-0.352-7.801,2.754-8.14,6.91c-0.34,4.156,2.754,7.8,6.91,8.139l3.562,0.291
	c0.209,0.018,0.417,0.026,0.623,0.026c3.891,0,7.194-2.989,7.517-6.936c0.34-4.156-2.754-7.8-6.91-8.139L215.694,132.817z"/>
<path d="M193.741,103.039c-4.163-0.358-7.802,2.752-8.142,6.908l-0.292,3.562c-0.341,4.156,2.752,7.801,6.908,8.141
	c0.21,0.018,0.418,0.026,0.625,0.026c3.89,0,7.193-2.988,7.517-6.934l0.292-3.562C200.99,107.025,197.898,103.38,193.741,103.039z"
	/>
<path d="M420.896,31.336c0-0.001-0.001-0.001-0.002-0.002l-14.795-9.438c-2.671-1.703-5.843-2.264-8.94-1.582
	c-3.094,0.683-5.737,2.532-7.441,5.203l-61.457,96.335h-65.142c-2.734-11.213-8.023-21.957-15.946-31.293
	c-4.454-5.249-9.491-9.735-14.925-13.477c18.925-16.148,32.629-36.485,39.585-48.105c2.761-4.611,2.322-10.259-1.117-14.388
	c-3.442-4.132-8.923-5.583-13.96-3.704l-21.064,7.866c-20.601,7.694-35.555,20.083-44.452,29.094
	c-1.238-2.775-2.508-5.466-3.815-8.044c-0.066-0.131-0.146-0.254-0.219-0.38c-7.684-15.048-17.328-28.359-29.437-37.819
	c-3.287-2.569-8.031-1.986-10.598,1.302c-2.567,3.286-1.984,8.031,1.302,10.598c3.309,2.585,6.411,5.545,9.325,8.804
	c-10.033-3.887-22.409-7.227-36.467-8.074L98.887,12.88c-5.376-0.32-10.184,2.672-12.264,7.632
	c-2.078,4.955-0.844,10.481,3.144,14.08c9.214,8.316,23.908,20.179,41.582,29.466c6.978,3.667,13.854,6.635,20.609,8.911
	c-3.055,1.679-6.032,3.574-8.898,5.712c-2.582,1.925-4.27,4.861-4.633,8.054c-0.361,3.176,0.618,6.397,2.686,8.833l34.288,40.406
	c-0.001,0.129-0.008,0.256-0.003,0.387l3.623,82.774c0.177,4.053,3.519,7.22,7.537,7.22c0.112,0,0.224-0.002,0.336-0.007
	c4.166-0.183,7.395-3.707,7.213-7.874l-1.6-36.562h21.876l10.591,12.481c2.068,2.437,5.085,3.928,8.278,4.088
	c0.194,0.01,0.387,0.015,0.581,0.015c3.008,0,5.94-1.176,8.121-3.275c4.24-4.083,7.892-8.559,10.986-13.309l0,0h119.776l0,0
	l-12.257,280.071c-21.869,1.952-49.183,3.019-77.847,3.019s-55.978-1.068-77.847-3.019l-9.078-207.423
	c-0.182-4.165-3.681-7.393-7.873-7.213c-4.166,0.183-7.395,3.707-7.213,7.874l10.656,243.485
	c0.326,7.455,6.426,13.295,13.888,13.295h154.933c7.462,0,13.562-5.84,13.888-13.294l15.858-362.346
	c0.165-3.769-1.236-7.494-3.845-10.22c-2.321-2.425-5.474-3.922-8.797-4.225l47.335-74.199
	C428.033,42.205,426.41,34.856,420.896,31.336z M240.974,32.899l13.839-5.168c-7.828,12.043-20.533,28.929-36.9,41.556
	c-6.478-2.665-13.248-4.413-20.22-5.222c-0.084-0.238-0.171-0.47-0.256-0.708C203.888,55.873,218.609,41.251,240.974,32.899z
	 M105.646,28.416l14.776,0.89c28.38,1.71,49.116,15.193,54.321,18.9c2.305,4.678,4.501,9.721,6.568,15.08
	C165.585,62.558,138.661,56.287,105.646,28.416z M191.844,166.812l-0.529-12.081l10.252,12.081H191.844z M221.89,167.421
	l-27.334-32.21L167.222,103c17.618-10.254,40.647-6.736,54.287,9.338S234.873,151.705,221.89,167.421z M234.033,181.731
	l-2.271-2.676c19.267-21.228,20.298-54.054,1.261-76.488c-19.037-22.435-51.595-26.758-75.674-11.202l-2.271-2.676
	c25.687-16.887,60.43-12.106,80.581,11.64C255.811,124.077,254.874,159.136,234.033,181.731z M358.928,496.9H206.29l-0.862-19.697
	c21.963,1.878,48.963,2.9,77.181,2.9c28.217,0,55.217-1.023,77.181-2.9L358.928,496.9z M299.579,166.812h-39.052
	c3.543-9.573,5.142-19.736,4.731-29.858h53.369L299.579,166.812z M330.627,166.812h-13.135l8.774-13.754l11.842,2.027
	L330.627,166.812z M335.077,139.245l9.981-15.645l11.842,2.027l-9.981,15.645L335.077,139.245z M373.374,166.812h-24.835
	l19.048-29.858h7.094L373.374,166.812z M365.712,111.816l-11.842-2.028l9.981-15.645l11.842,2.027L365.712,111.816z M384.504,82.359
	l-11.842-2.027l9.981-15.645l11.842,2.027L384.504,82.359z M403.296,52.902l-11.842-2.027l9.254-14.506l9.336,5.956L403.296,52.902z
	"/>
<g>
</g>
<g>
</g>
<g>
</g>
<g>
</g>
<g>
</g>
<g>
</g>
<g>
</g>
<g>
</g>
<g>
</g>
<g>
</g>
<g>
</g>
<g>
</g>
<g>
</g>
<g>
</g>
<g>
</g>
</svg>
