<?xml version="1.0" encoding="iso-8859-1"?>
<!-- Generator: Adobe Illustrator 19.0.0, SVG Export Plug-In . SVG Version: 6.00 Build 0)  -->
<svg version="1.1" id="Capa_1" xmlns="http://www.w3.org/2000/svg" xmlns:xlink="http://www.w3.org/1999/xlink" x="0px" y="0px"
	 viewBox="0 0 512 512" style="enable-background:new 0 0 512 512;" xml:space="preserve">
<path style="fill:#FEE9AB;" d="M388.267,68.267c-24.977,0.034-46.293,18.048-50.492,42.667h50.492c4.71,0,8.533,3.823,8.533,8.533
	c0,1.929-0.649,3.789-1.843,5.299l-31.334,39.578c7.535,4.19,16.026,6.366,24.644,6.323c28.279,0,51.2-22.921,51.2-51.2
	S416.546,68.267,388.267,68.267z"/>
<polygon style="fill:#FCCA75;" points="251.392,275.447 235.008,270.686 254.14,204.8 142.438,204.8 226.133,310.519 309.828,204.8 
	271.906,204.8 "/>
<polygon style="fill:#FCFCE8;" points="294.204,128 276.855,187.733 323.337,187.733 370.628,128 "/>
<path d="M388.267,51.2c-34.372,0.06-63.351,25.634-67.678,59.733h-21.436l27.255-93.867h27.725V0H320
	c-3.797,0-7.134,2.509-8.192,6.153l-30.421,104.781H64c-4.71,0-8.533,3.823-8.533,8.533c0,1.929,0.649,3.789,1.843,5.299
	l160.29,202.47v167.697h-68.267V512h153.6v-17.067h-68.267V327.236l118.374-149.521c10.581,6.554,22.775,10.027,35.226,10.018
	c37.7,0,68.267-30.566,68.267-68.267S425.967,51.2,388.267,51.2z M370.628,128l-47.292,59.733h-46.481L294.204,128H370.628z
	 M251.392,275.447l20.514-70.647h37.922l-83.695,105.719L142.438,204.8H254.14l-19.132,65.886L251.392,275.447z M276.429,128
	l-17.34,59.733H128.93L81.638,128H276.429z M388.267,170.667c-8.619,0.043-17.109-2.133-24.644-6.323l31.334-39.578
	c2.927-3.695,2.304-9.062-1.391-11.989c-1.502-1.195-3.371-1.843-5.299-1.843h-50.492c4.71-27.878,31.138-46.66,59.017-41.95
	c27.878,4.71,46.66,31.138,41.95,59.017C434.577,152.636,413.252,170.667,388.267,170.667z"/>
<g>
</g>
<g>
</g>
<g>
</g>
<g>
</g>
<g>
</g>
<g>
</g>
<g>
</g>
<g>
</g>
<g>
</g>
<g>
</g>
<g>
</g>
<g>
</g>
<g>
</g>
<g>
</g>
<g>
</g>
</svg>
