<?xml version="1.0" encoding="UTF-8" standalone="no"?><!DOCTYPE svg PUBLIC "-//W3C//DTD SVG 1.1//EN" "http://www.w3.org/Graphics/SVG/1.1/DTD/svg11.dtd"><svg width="100%" height="100%" viewBox="0 0 176 233" version="1.1" xmlns="http://www.w3.org/2000/svg" xmlns:xlink="http://www.w3.org/1999/xlink" xml:space="preserve" xmlns:serif="http://www.serif.com/" style="fill-rule:evenodd;clip-rule:evenodd;stroke-linejoin:round;stroke-miterlimit:1.41421;"><path d="M53.499,176.731c2.433,0 4.405,1.972 4.405,4.405c0,2.432 -1.972,4.405 -4.405,4.405c-2.433,0 -4.405,-1.973 -4.405,-4.405c0,-2.433 1.972,-4.405 4.405,-4.405m17.494,27.136c4.923,0 8.914,3.99 8.914,8.913c0,4.924 -3.991,8.914 -8.914,8.914c-4.922,0 -8.913,-3.99 -8.913,-8.914c0,-4.923 3.991,-8.913 8.913,-8.913m16.166,-15.069c1.719,0 3.113,1.394 3.113,3.113c0,1.719 -1.394,3.113 -3.113,3.113c-1.72,0 -3.113,-1.394 -3.113,-3.113c0,-1.719 1.393,-3.113 3.113,-3.113m16.234,19.526c2.461,0 4.457,1.995 4.457,4.456c0,2.462 -1.996,4.457 -4.457,4.457c-2.462,0 -4.457,-1.995 -4.457,-4.457c0,-2.461 1.995,-4.456 4.457,-4.456m11.687,-29.679c3.663,0 6.632,2.97 6.632,6.633c0,3.663 -2.969,6.633 -6.632,6.633c-3.664,0 -6.633,-2.97 -6.633,-6.633c0,-3.663 2.969,-6.633 6.633,-6.633m-67.004,49.321l80.087,0l9.129,-59.8l-98.908,0l9.128,59.8l0.564,0Z" style="fill:#ef8181;fill-rule:nonzero;"/><path d="M138.124,69.481c-5.477,0 -9.917,-4.44 -9.917,-9.917c0,-5.476 4.44,-9.916 9.917,-9.916c5.477,0 9.917,4.44 9.917,9.916c0,5.477 -4.44,9.917 -9.917,9.917m-21.276,20.187c-2.198,0 -3.98,-1.781 -3.98,-3.979c0,-2.197 1.782,-3.979 3.98,-3.979c2.197,0 3.979,1.782 3.979,3.979c0,2.198 -1.782,3.979 -3.979,3.979m-17.392,-26.596c-3.084,0 -5.584,-2.5 -5.584,-5.583c0,-3.084 2.5,-5.584 5.584,-5.584c3.083,0 5.583,2.5 5.583,5.584c0,3.083 -2.5,5.583 -5.583,5.583m-29.837,19.675c-3.663,0 -6.633,-2.97 -6.633,-6.633c0,-3.663 2.97,-6.633 6.633,-6.633c3.663,0 6.633,2.97 6.633,6.633c0,3.663 -2.97,6.633 -6.633,6.633m-30.605,-23.925c-2.197,0 -3.979,-1.781 -3.979,-3.979c0,-2.198 1.782,-3.979 3.979,-3.979c2.198,0 3.979,1.781 3.979,3.979c0,2.198 -1.781,3.979 -3.979,3.979m-1.989,21.916c-1.099,0 -1.99,-0.891 -1.99,-1.99c0,-1.099 0.891,-1.989 1.99,-1.989c1.099,0 1.989,0.89 1.989,1.989c0,1.099 -0.89,1.99 -1.989,1.99m118.917,-34.454l-136.107,0l7.369,47.684l121.412,0l7.326,-47.684Z" style="fill:#ef8181;fill-rule:nonzero;"/><path d="M136.304,29.573c-1.381,0 -2.5,-1.119 -2.5,-2.5c0,-1.381 1.119,-2.5 2.5,-2.5l11.386,0l0,-19.573l-119.606,0l0,19.573l50.165,0c1.381,0 2.5,1.119 2.5,2.5c0,1.381 -1.119,2.5 -2.5,2.5l-8.138,0l-44.527,0l-20.585,0l0,11.711l165.776,0l0,-11.711l-20.585,0l-13.111,0l-0.775,0Z" style="fill:#83cfed;fill-rule:nonzero;"/><path d="M134.942,112.42l-4.25,37.853c-0.144,1.277 -1.226,2.22 -2.481,2.22c-0.093,0 -0.188,-0.005 -0.283,-0.015c-1.372,-0.155 -2.359,-1.392 -2.205,-2.764l4.25,-37.853c0.155,-1.371 1.393,-2.359 2.764,-2.205c1.372,0.155 2.359,1.392 2.205,2.764m-25.619,37.709c-0.072,1.333 -1.176,2.364 -2.494,2.364c-0.046,0 -0.092,-0.001 -0.138,-0.004c-1.379,-0.075 -2.436,-1.254 -2.36,-2.631l2.046,-37.544c0.075,-1.379 1.269,-2.453 2.631,-2.361c1.379,0.075 2.436,1.254 2.361,2.632l-2.046,37.544Zm-19.41,-0.136c0,1.381 -1.119,2.5 -2.5,2.5c-1.381,0 -2.5,-1.119 -2.5,-2.5l0,-37.544c0,-1.381 1.119,-2.5 2.5,-2.5c1.381,0 2.5,1.119 2.5,2.5l0,37.544Zm-22.229,2.498c-0.036,0.001 -0.073,0.002 -0.109,0.002c-1.331,0 -2.438,-1.05 -2.496,-2.392l-1.624,-37.699c-0.059,-1.378 1.01,-2.545 2.39,-2.605c1.371,-0.022 2.546,1.012 2.606,2.391l1.624,37.698c0.058,1.379 -1.011,2.546 -2.391,2.605m-20.787,-0.013c-0.095,0.01 -0.189,0.015 -0.282,0.015c-1.256,0 -2.338,-0.943 -2.482,-2.22l-4.25,-37.853c-0.154,-1.372 0.833,-2.609 2.205,-2.764c1.373,-0.156 2.61,0.834 2.764,2.205l4.25,37.853c0.154,1.372 -0.833,2.609 -2.205,2.764m-24.185,-53.509l11.895,64.197l106.561,0l11.895,-64.197l-130.351,0Z" style="fill:#83cfed;fill-rule:nonzero;"/><ellipse cx="138.124" cy="59.564" rx="9.917" ry="9.916" style="fill:#fff;"/><ellipse cx="99.456" cy="57.489" rx="5.583" ry="5.584" style="fill:#fff;"/><circle cx="39.015" cy="54.843" r="3.979" style="fill:#fff;"/><circle cx="116.848" cy="85.689" r="3.979" style="fill:#fff;"/><circle cx="69.619" cy="76.114" r="6.633" style="fill:#fff;"/><path d="M115.08,191.911c3.663,0 6.633,-2.97 6.633,-6.633c0,-3.663 -2.97,-6.633 -6.633,-6.633c-3.663,0 -6.633,2.97 -6.633,6.633c0,3.663 2.97,6.633 6.633,6.633" style="fill:#fff;fill-rule:nonzero;"/><path d="M70.994,221.695c4.923,0 8.914,-3.991 8.914,-8.914c0,-4.923 -3.991,-8.914 -8.914,-8.914c-4.923,0 -8.914,3.991 -8.914,8.914c0,4.923 3.991,8.914 8.914,8.914" style="fill:#fff;fill-rule:nonzero;"/><path d="M103.393,217.238c2.462,0 4.457,-1.995 4.457,-4.457c0,-2.462 -1.995,-4.457 -4.457,-4.457c-2.461,0 -4.457,1.995 -4.457,4.457c0,2.462 1.996,4.457 4.457,4.457" style="fill:#fff;fill-rule:nonzero;"/><path d="M53.499,185.541c2.433,0 4.405,-1.972 4.405,-4.405c0,-2.432 -1.972,-4.405 -4.405,-4.405c-2.433,0 -4.405,1.973 -4.405,4.405c0,2.433 1.972,4.405 4.405,4.405" style="fill:#fff;fill-rule:nonzero;"/><path d="M87.159,195.024c1.719,0 3.113,-1.394 3.113,-3.113c0,-1.719 -1.394,-3.113 -3.113,-3.113c-1.719,0 -3.113,1.394 -3.113,3.113c0,1.719 1.394,3.113 3.113,3.113" style="fill:#fff;fill-rule:nonzero;"/><ellipse cx="37.025" cy="78.748" rx="1.99" ry="1.989" style="fill:#fff;"/><path d="M173.275,24.573l-20.585,0l0,2.5c0,1.381 -1.119,2.5 -2.5,2.5l20.585,0l0,11.711l-11.92,0c0.73,0 1.422,0.318 1.898,0.872c0.474,0.554 0.684,1.287 0.573,2.008l-0.326,2.12l12.275,0c1.381,0 2.5,-1.119 2.5,-2.5l0,-16.711c0,-1.381 -1.119,-2.5 -2.5,-2.5" style="fill-rule:nonzero;"/><path d="M15.021,42.157c0.476,-0.555 1.169,-0.873 1.898,-0.873l-11.919,0l0,-11.711l20.584,0c-1.38,0 -2.5,-1.119 -2.5,-2.5l0,-2.5l-20.584,0c-1.381,0 -2.5,1.119 -2.5,2.5l0,16.711c0,1.381 1.119,2.5 2.5,2.5l12.276,0l-0.327,-2.118c-0.112,-0.721 0.097,-1.455 0.572,-2.009" style="fill-rule:nonzero;"/><path d="M133.804,27.073c0,1.381 1.119,2.5 2.5,2.5l0.775,0c-1.38,0 -2.5,-1.119 -2.5,-2.5c0,-1.381 1.12,-2.5 2.5,-2.5l-0.775,0c-1.381,0 -2.5,1.119 -2.5,2.5" style="fill-rule:nonzero;"/><path d="M23.084,27.073c0,1.381 1.119,2.5 2.5,2.5l52.665,0c1.381,0 2.501,-1.119 2.501,-2.5c-0.001,-1.381 -1.12,-2.5 -2.501,-2.5l-8.138,0l-42.027,0l0.001,-19.573l119.604,0l0,19.573l-10.609,0c-1.381,0 -2.5,1.119 -2.5,2.5c0,1.381 1.119,2.5 2.5,2.5l13.109,0c1.382,0 2.5,-1.119 2.5,-2.5l0,-2.5l0,-22.073c0,-1.381 -1.118,-2.5 -2.5,-2.5l-124.605,0c-1.38,0 -2.499,1.119 -2.499,2.5l0,24.573Z" style="fill-rule:nonzero;"/><path d="M112.827,230.467c0,-1.381 1.119,-2.5 2.5,-2.5l-67.25,0c1.381,0 2.5,1.119 2.5,2.5c0,1.381 -1.119,2.5 -2.5,2.5l67.25,0c-1.381,0 -2.5,-1.119 -2.5,-2.5" style="fill-rule:nonzero;"/><path d="M137.292,168.166l-9.128,59.801l5.058,0l9.128,-59.801l-5.058,0Z" style="fill-rule:nonzero;"/><path d="M47.512,227.967l-9.127,-59.802l-5.059,0l9.128,59.801l5.058,0Z" style="fill-rule:nonzero;"/><path d="M160.753,42.156c-0.476,-0.554 -1.168,-0.872 -1.897,-0.872l-141.936,0c-0.73,0 -1.423,0.318 -1.898,0.873c-0.475,0.554 -0.684,1.288 -0.573,2.009l0.328,2.118l7.369,47.685l5.059,0l-7.369,-47.685l136.106,0l-7.325,47.685l5.058,0l7.326,-47.685l0.325,-2.12c0.112,-0.721 -0.098,-1.454 -0.573,-2.008" style="fill-rule:nonzero;"/><path d="M141.168,163.166l-106.562,0l-11.894,-64.197l130.352,0l-11.897,64.197Zm7.45,-69.197l-121.413,0l-5.058,0l-2.441,0c-0.743,0 -1.447,0.33 -1.922,0.901c-0.474,0.571 -0.672,1.324 -0.536,2.054l12.822,69.197c0.221,1.186 1.253,2.045 2.458,2.045l110.72,0c1.204,0 2.238,-0.859 2.458,-2.045l12.822,-69.197c0.136,-0.73 -0.06,-1.483 -0.536,-2.054c-0.475,-0.571 -1.178,-0.901 -1.922,-0.901l-2.394,0l-5.058,0Z" style="fill-rule:nonzero;"/><path d="M128.164,227.967l-12.837,0c-1.381,0 -2.5,1.119 -2.5,2.5c0,1.381 1.119,2.5 2.5,2.5l29.334,0c1.381,0 2.5,-1.119 2.5,-2.5c0,-1.381 -1.119,-2.5 -2.5,-2.5l-11.439,0l-5.058,0Z" style="fill-rule:nonzero;"/><path d="M167.577,227.967l-8.722,0c-1.381,0 -2.5,1.119 -2.5,2.5c0,1.381 1.119,2.5 2.5,2.5l8.722,0c1.381,0 2.5,-1.119 2.5,-2.5c0,-1.381 -1.119,-2.5 -2.5,-2.5" style="fill-rule:nonzero;"/><path d="M50.577,230.467c0,-1.381 -1.119,-2.5 -2.5,-2.5l-0.564,0l-5.059,0l-20.627,0c-1.381,0 -2.5,1.119 -2.5,2.5c0,1.381 1.119,2.5 2.5,2.5l26.25,0c1.381,0 2.5,-1.119 2.5,-2.5" style="fill-rule:nonzero;"/><path d="M44.852,111.861c-0.154,-1.371 -1.392,-2.361 -2.764,-2.205c-1.372,0.154 -2.359,1.392 -2.205,2.764l4.25,37.852c0.144,1.277 1.226,2.221 2.482,2.221c0.092,0 0.187,-0.005 0.282,-0.016c1.372,-0.154 2.359,-1.391 2.205,-2.763l-4.25,-37.853Z" style="fill-rule:nonzero;"/><path d="M132.737,109.656c-1.371,-0.154 -2.609,0.834 -2.764,2.205l-4.25,37.853c-0.154,1.372 0.833,2.609 2.205,2.763c0.095,0.011 0.19,0.016 0.283,0.016c1.255,0 2.338,-0.943 2.481,-2.221l4.25,-37.852c0.154,-1.372 -0.833,-2.61 -2.205,-2.764" style="fill-rule:nonzero;"/><path d="M65.845,109.797c-1.38,0.06 -2.449,1.227 -2.391,2.605l1.624,37.699c0.059,1.342 1.165,2.392 2.496,2.392c0.037,0 0.074,-0.001 0.11,-0.002c1.38,-0.059 2.449,-1.226 2.39,-2.605l-1.624,-37.698c-0.059,-1.379 -1.234,-2.412 -2.605,-2.391" style="fill-rule:nonzero;"/><path d="M87.413,109.949c-1.381,0 -2.5,1.119 -2.5,2.5l0,37.544c0,1.381 1.119,2.5 2.5,2.5c1.381,0 2.5,-1.119 2.5,-2.5l0,-37.544c0,-1.381 -1.119,-2.5 -2.5,-2.5" style="fill-rule:nonzero;"/><path d="M109.008,109.953c-1.362,-0.092 -2.557,0.981 -2.632,2.36l-2.046,37.544c-0.075,1.378 0.982,2.557 2.361,2.632c0.046,0.003 0.091,0.004 0.137,0.004c1.319,0 2.422,-1.031 2.494,-2.364l2.046,-37.544c0.076,-1.378 -0.981,-2.557 -2.36,-2.632" style="fill-rule:nonzero;"/></svg>