<svg height="453pt" viewBox="0 -14 453.892 453" width="453pt" xmlns="http://www.w3.org/2000/svg"><path d="m188.765625 370.109375v-117.734375c0-.597656-.160156-1.082031-.363281-1.082031-6.054688 0-10.960938-14.625-10.960938-32.667969v-7.585938c0-7.710937-2.097656-13.964843-4.6875-13.964843h-.683594c-22.921874 0-41.5-55.375-41.5-123.6875h-124.574218c0 68.3125 55.378906 123.6875 123.691406 123.6875h2.035156c7.714844 0 13.964844 6.253906 13.964844 13.964843v7.585938c0 18.042969 14.625 32.667969 32.667969 32.667969.597656 0 1.082031.484375 1.082031 1.082031v117.734375c0 12.851563-6.542969 24.820313-17.367188 31.75l-26.871093 17.21875h38.722656l9.015625-17.21875c3.632812-6.929687 5.828125-18.898437 5.828125-31.75zm0 0" fill="#89aadb"/><path d="m256.378906 73.386719c0 68.3125-18.578125 123.6875-41.5 123.6875h-.683594c-2.589843 0-4.6875 6.253906-4.6875 13.964843v7.585938c0 18.042969-4.90625 32.667969-10.960937 32.667969-.199219 0-.363281.484375-.363281 1.082031v117.734375c0 12.851563 2.195312 24.820313 5.824218 31.75l9.019532 17.21875h38.71875l-26.871094-17.21875c-10.820312-6.929687-17.367188-18.898437-17.367188-31.75v-117.734375c0-.597656.484376-1.082031 1.082032-1.082031 18.042968 0 32.667968-14.625 32.667968-32.667969v-7.585938c0-7.710937 6.253907-13.964843 13.964844-13.964843h2.039063c68.308593 0 123.6875-55.375 123.6875-123.6875zm0 0" fill="#4b67b0"/><path d="m198.183594 370.109375v-117.734375c0-.597656.164062-1.082031.363281-1.082031 6.054687 0 10.964844-14.625 10.964844-32.667969v-7.585938c0-7.710937 2.097656-13.964843 4.683593-13.964843h.683594c22.921875 0 41.503906-55.375 41.503906-123.6875h-125.8125c0 68.3125 18.578126 123.6875 41.5 123.6875h.683594c2.589844 0 4.6875 6.253906 4.6875 13.964843v7.585938c0 18.042969 4.90625 32.667969 10.960938 32.667969.199218 0 .363281.484375.363281 1.082031v117.734375c0 12.851563-2.195313 24.820313-5.824219 31.75l-9.019531 17.21875h39.105469l-9.015625-17.21875c-3.632813-6.929687-5.828125-18.898437-5.828125-31.75zm0 0" fill="#6287c5"/><path d="m188.402344 251.292969c-6.054688 0-10.960938-14.625-10.960938-32.667969v-7.585938c0-7.710937-2.097656-13.964843-4.6875-13.964843h-.683594c-17.265624 0-32.058593-31.421875-38.316406-76.113281h-118.261718c18.640624 44.691406 62.742187 76.113281 114.195312 76.113281h2.035156c7.714844 0 13.964844 6.253906 13.964844 13.964843v7.585938c0 18.042969 14.625 32.667969 32.667969 32.667969.203125 0 .382812.070312.542969.167969h9.6875c-.054688-.09375-.117188-.167969-.183594-.167969zm0 0" fill="#ef7f72"/><path d="m253.195312 120.960938c-6.253906 44.691406-21.054687 76.113281-38.316406 76.113281h-.683594c-2.589843 0-4.6875 6.253906-4.6875 13.964843v7.585938c0 18.042969-4.90625 32.667969-10.960937 32.667969-.070313 0-.128906.070312-.183594.167969h9.683594c.164063-.09375.34375-.167969.546875-.167969 18.039062 0 32.667969-14.625 32.667969-32.667969v-7.585938c0-7.710937 6.25-13.964843 13.960937-13.964843h2.039063c51.449219 0 95.550781-31.421875 114.195312-76.113281zm0 0" fill="#e8383b"/><path d="m198.546875 251.292969c6.054687 0 10.964844-14.625 10.964844-32.667969v-7.585938c0-7.710937 2.097656-13.964843 4.683593-13.964843h.683594c17.265625 0 32.0625-31.421875 38.316406-76.113281h-119.4375c6.253907 44.691406 21.050782 76.113281 38.3125 76.113281h.6875c2.585938 0 4.683594 6.253906 4.683594 13.964843v7.585938c0 18.042969 4.910156 32.667969 10.960938 32.667969.070312 0 .128906.070312.183594.167969h9.78125c.054687-.09375.113281-.167969.179687-.167969zm0 0" fill="#e95947"/><path d="m251.75 425.078125h-116.550781c-2.664063 0-5.007813-1.753906-5.757813-4.3125-.75-2.554687.277344-5.300781 2.523438-6.738281l26.875-17.21875c9.140625-5.855469 14.601562-15.839844 14.601562-26.699219v-113.125c-19.007812-2.421875-33.75-18.703125-33.75-38.359375v-7.585938c0-4.390624-3.574218-7.960937-7.964844-7.960937h-2.039062c-71.511719 0-129.6875-58.179687-129.6875-129.6875 0-3.316406 2.6875-6.003906 6-6.003906h374.953125c3.316406 0 6 2.6875 6 6 0 71.511719-58.175781 129.691406-129.6875 129.691406h-2.039063c-4.390624 0-7.960937 3.570313-7.960937 7.964844v7.582031c0 19.65625-14.746094 35.9375-33.753906 38.359375v113.125c0 10.859375 5.457031 20.84375 14.601562 26.699219l26.875 17.21875c2.246094 1.4375 3.273438 4.183594 2.523438 6.738281-.75 2.558594-3.097657 4.3125-5.761719 4.3125zm-96.0625-12h75.578125l-9.625-6.164063c-12.605469-8.078124-20.128906-21.835937-20.128906-36.804687v-117.730469c0-3.90625 3.179687-7.082031 7.085937-7.082031 14.703125 0 26.667969-11.964844 26.667969-26.671875v-7.582031c0-11.007813 8.953125-19.964844 19.960937-19.964844h2.039063c62.878906 0 114.402344-49.570313 117.535156-111.691406h-362.652343c3.136718 62.121093 54.65625 111.691406 117.539062 111.691406h2.039062c11.007813 0 19.964844 8.957031 19.964844 19.960937v7.585938c0 14.707031 11.960938 26.671875 26.667969 26.671875 3.90625 0 7.082031 3.175781 7.082031 7.082031v117.730469c0 14.96875-7.523437 28.726563-20.128906 36.804687zm0 0" fill="#1c2d6b"/><path d="m208.050781 257.460938h-29.152343c-.492188 0-.976563-.058594-1.449219-.175782-20.90625-.484375-37.761719-17.640625-37.761719-38.660156v-7.585938c0-4.390624-3.570312-7.964843-7.964844-7.964843h-2.039062c-52.511719 0-99.507813-31.324219-119.730469-79.804688-.769531-1.855469-.566406-3.96875.542969-5.636719 1.117187-1.667968 2.988281-2.671874 4.996094-2.671874h355.964843c2.007813 0 3.882813 1.003906 4.996094 2.671874 1.109375 1.667969 1.316406 3.785157.542969 5.636719-20.21875 48.480469-67.21875 79.804688-119.730469 79.804688h-2.039063c-4.390624 0-7.964843 3.574219-7.964843 7.964843v7.585938c0 21.019531-16.855469 38.175781-37.757813 38.660156-.472656.117188-.960937.175782-1.453125.175782zm-28.1875-12h27.226563c.496094-.109376 1-.167969 1.503906-.167969 14.707031 0 26.667969-11.964844 26.667969-26.667969v-7.585938c0-11.007812 8.957031-19.964843 19.964843-19.964843h2.039063c44.582031 0 84.785156-24.878907 104.808594-64.117188h-337.199219c20.023438 39.234375 60.226562 64.117188 104.808594 64.117188h2.039062c11.007813 0 19.964844 8.960937 19.964844 19.964843v7.585938c0 14.703125 11.964844 26.667969 26.667969 26.667969.507812 0 1.011719.058593 1.507812.167969zm0 0" fill="#1c2d6b"/><path d="m380.953125 6.445312c15.925781 0 28.839844 29.96875 28.839844 66.941407 0 36.96875-12.914063 66.9375-28.839844 66.9375 36.96875 0 66.9375-29.96875 66.9375-66.9375 0-36.972657-29.96875-66.941407-66.9375-66.941407zm0 0" fill="#d3ba2a"/><path d="m352.113281 73.386719c0-36.96875 12.910157-66.9375 28.839844-66.9375-36.972656 0-66.941406 29.96875-66.941406 66.9375 0 36.972656 29.96875 66.941406 66.941406 66.941406-15.929687 0-28.839844-29.96875-28.839844-66.941406zm0 0" fill="#ede27e"/><path d="m409.792969 73.386719c0-36.96875-12.914063-66.9375-28.839844-66.9375-15.929687 0-28.839844 29.96875-28.839844 66.9375 0 36.972656 12.910157 66.941406 28.839844 66.941406 15.925781 0 28.839844-29.96875 28.839844-66.941406zm0 0" fill="#eee045"/><path d="m380.953125 146.328125c-40.222656 0-72.941406-32.71875-72.941406-72.941406 0-40.21875 32.71875-72.941407 72.941406-72.941407 40.21875 0 72.9375 32.71875 72.9375 72.941407 0 40.222656-32.71875 72.941406-72.9375 72.941406zm0-133.878906c-33.601563 0-60.941406 27.335937-60.941406 60.9375 0 33.605469 27.339843 60.941406 60.941406 60.941406s60.9375-27.335937 60.9375-60.941406c0-33.601563-27.335937-60.9375-60.9375-60.9375zm0 0" fill="#1c2d6b"/><path d="m366.027344 73.386719c0-24.492188 6.683594-44.347657 14.925781-44.347657-24.496094 0-44.351563 19.855469-44.351563 44.347657 0 24.496093 19.855469 44.347656 44.351563 44.347656-8.242187 0-14.925781-19.855469-14.925781-44.347656zm0 0" fill="#ef7f72"/><path d="m380.953125 29.039062c8.242187 0 14.921875 19.855469 14.921875 44.347657 0 24.496093-6.679688 44.347656-14.921875 44.347656 24.492187 0 44.347656-19.855469 44.347656-44.347656 0-24.492188-19.855469-44.347657-44.347656-44.347657zm0 0" fill="#e8383b"/><path d="m395.875 73.386719c0-24.492188-6.679688-44.347657-14.921875-44.347657s-14.925781 19.855469-14.925781 44.347657c0 24.496093 6.683594 44.347656 14.925781 44.347656s14.921875-19.855469 14.921875-44.347656zm0 0" fill="#e95947"/><g fill="#1c2d6b"><path d="m380.953125 123.734375c-27.761719 0-50.351563-22.585937-50.351563-50.347656 0-27.765625 22.585938-50.351563 50.351563-50.351563 27.761719 0 50.347656 22.585938 50.347656 50.351563 0 27.761719-22.585937 50.347656-50.347656 50.347656zm0-88.695313c-21.148437 0-38.351563 17.203126-38.351563 38.347657 0 21.148437 17.203126 38.351562 38.351563 38.351562 21.144531 0 38.347656-17.203125 38.347656-38.351562 0-21.144531-17.203125-38.347657-38.347656-38.347657zm0 0"/><path d="m380.949219 109.066406c-3.3125 0-6-2.6875-6-6v-6.058594c0-3.316406 2.6875-6 6-6 3.316406 0 6 2.683594 6 6v6.058594c0 3.3125-2.683594 6-6 6zm0 0"/><path d="m380.949219 55.765625c-3.3125 0-6-2.6875-6-6v-6.058594c0-3.316406 2.6875-6 6-6 3.316406 0 6 2.683594 6 6v6.058594c0 3.3125-2.683594 6-6 6zm0 0"/><path d="m357.328125 79.386719h-6.058594c-3.3125 0-6-2.6875-6-6 0-3.316407 2.6875-6 6-6h6.058594c3.316406 0 6 2.683593 6 6 0 3.3125-2.683594 6-6 6zm0 0"/><path d="m410.628906 79.386719h-6.058594c-3.3125 0-6-2.6875-6-6 0-3.316407 2.6875-6 6-6h6.058594c3.316406 0 6 2.683593 6 6 0 3.3125-2.683594 6-6 6zm0 0"/><path d="m359.96875 100.367188c-1.535156 0-3.070312-.585938-4.242188-1.757813-2.34375-2.34375-2.34375-6.144531 0-8.484375l4.28125-4.28125c2.34375-2.34375 6.140626-2.34375 8.484376 0s2.34375 6.140625 0 8.484375l-4.28125 4.28125c-1.171876 1.171875-2.707032 1.757813-4.242188 1.757813zm0 0"/><path d="m397.648438 62.6875c-1.535157 0-3.070313-.585938-4.242188-1.757812-2.34375-2.34375-2.34375-6.144532 0-8.484376l4.28125-4.28125c2.34375-2.34375 6.140625-2.34375 8.484375 0s2.34375 6.140626 0 8.484376l-4.28125 4.28125c-1.167969 1.171874-2.703125 1.757812-4.242187 1.757812zm0 0"/><path d="m364.25 62.6875c-1.535156 0-3.070312-.585938-4.242188-1.757812l-4.28125-4.28125c-2.34375-2.34375-2.34375-6.140626 0-8.484376s6.140626-2.34375 8.488282 0l4.277344 4.28125c2.347656 2.339844 2.347656 6.140626 0 8.484376-1.171876 1.171874-2.707032 1.757812-4.242188 1.757812zm0 0"/><path d="m401.929688 100.367188c-1.535157 0-3.070313-.585938-4.242188-1.757813l-4.28125-4.28125c-2.34375-2.34375-2.34375-6.140625 0-8.484375s6.144531-2.34375 8.484375 0l4.28125 4.28125c2.34375 2.339844 2.34375 6.140625 0 8.484375-1.171875 1.171875-2.707031 1.757813-4.242187 1.757813zm0 0"/></g></svg>