<?xml version="1.0" encoding="UTF-8" standalone="no"?><!DOCTYPE svg PUBLIC "-//W3C//DTD SVG 1.1//EN" "http://www.w3.org/Graphics/SVG/1.1/DTD/svg11.dtd"><svg width="100%" height="100%" viewBox="0 0 208 284" version="1.1" xmlns="http://www.w3.org/2000/svg" xmlns:xlink="http://www.w3.org/1999/xlink" xml:space="preserve" xmlns:serif="http://www.serif.com/" style="fill-rule:evenodd;clip-rule:evenodd;stroke-linejoin:round;stroke-miterlimit:1.41421;"><path d="M103.697,101.536c2.022,0 3.661,1.639 3.661,3.661c0,2.022 -1.639,3.662 -3.661,3.662c-2.022,0 -3.661,-1.64 -3.661,-3.662c0,-2.022 1.639,-3.661 3.661,-3.661m10.194,23.796c1.363,0 2.467,1.105 2.467,2.467c0,1.363 -1.104,2.467 -2.467,2.467c-1.363,0 -2.467,-1.104 -2.467,-2.467c0,-1.362 1.104,-2.467 2.467,-2.467m9.905,-14.379c1.725,0 3.125,1.399 3.125,3.125c0,1.725 -1.4,3.125 -3.125,3.125c-1.726,0 -3.125,-1.4 -3.125,-3.125c0,-1.726 1.399,-3.125 3.125,-3.125m-5.773,33.871c0.05,-0.003 0.097,-0.015 0.147,-0.015c0.05,0 0.097,0.012 0.147,0.015l45.019,-51.184l-10.664,0l-21.861,35.99c-0.471,0.775 -1.295,1.202 -2.139,1.202c-0.442,0 -0.891,-0.117 -1.296,-0.363c-1.179,-0.717 -1.555,-2.255 -0.839,-3.434l20.285,-33.395l-73.818,0l45.019,51.184Z" style="fill:#ef8181;fill-rule:nonzero;"/><path d="M118.023,144.824l-45.02,-51.184l-24.264,-27.587l114.839,0l3.038,-5l-123.405,0c-0.983,0 -1.873,0.576 -2.279,1.47c-0.404,0.896 -0.247,1.944 0.402,2.682l74.336,84.514l0,-2.41c0,-1.33 1.042,-2.408 2.353,-2.485" style="fill-rule:nonzero;"/><path d="M187.601,66.053l-24.264,27.587l-45.02,51.184c1.311,0.077 2.353,1.154 2.353,2.485l0,2.41l74.336,-84.515c0.649,-0.737 0.806,-1.786 0.402,-2.681c-0.406,-0.895 -1.296,-1.47 -2.279,-1.47l-20.663,0l-3.037,5l18.172,0Z" style="fill-rule:nonzero;"/><path d="M118.17,265.845c-1.381,0 -2.5,-1.119 -2.5,-2.5l0,-1.084l-18.446,17.275c-0.749,0.703 -0.993,1.79 -0.616,2.745c0.376,0.954 1.298,1.581 2.325,1.581l15.684,0c-1.381,0 -2.5,-1.12 -2.5,-2.5c0,-1.381 1.119,-2.5 2.5,-2.5l-9.358,0l12.911,-12.092l12.911,12.092l7.316,0l-17.727,-16.601l0,1.084c0,1.381 -1.119,2.5 -2.5,2.5" style="fill-rule:nonzero;"/><path d="M163.579,66.053l-16.757,27.587l-20.285,33.394c-0.716,1.18 -0.34,2.718 0.839,3.435c0.406,0.246 0.854,0.363 1.296,0.363c0.844,0 1.668,-0.427 2.139,-1.202l21.861,-35.99l16.757,-27.587l3.037,-5l34.779,-57.256c0.716,-1.18 0.34,-2.718 -0.839,-3.434c-1.178,-0.715 -2.717,-0.341 -3.435,0.838l-36.355,59.852l-3.037,5Z" style="fill-rule:nonzero;"/><path d="M118.317,144.824c-0.05,-0.003 -0.096,-0.015 -0.147,-0.015c-0.05,0 -0.097,0.012 -0.146,0.015c-1.311,0.077 -2.354,1.155 -2.354,2.485l0,116.036c0,1.381 1.119,2.5 2.5,2.5c1.381,0 2.5,-1.119 2.5,-2.5l0,-1.084l0,-112.542l0,-2.41c0,-1.33 -1.042,-2.408 -2.353,-2.485" style="fill-rule:nonzero;"/><path d="M64.702,278.861c-1.381,0 -2.5,1.119 -2.5,2.5c0,1.381 1.119,2.5 2.5,2.5l23.796,0c1.381,0 2.5,-1.119 2.5,-2.5c0,-1.381 -1.119,-2.5 -2.5,-2.5l-23.796,0Z" style="fill-rule:nonzero;"/><path d="M114.617,278.861c-1.381,0 -2.5,1.119 -2.5,2.5c0,1.381 1.119,2.5 2.5,2.5l43.977,0c1.38,0 2.5,-1.119 2.5,-2.5c0,-1.381 -1.12,-2.5 -2.5,-2.5l-20.198,0l-7.315,0l-16.464,0Z" style="fill-rule:nonzero;"/><path d="M169.356,278.861c-1.381,0 -2.5,1.119 -2.5,2.5c0,1.381 1.119,2.5 2.5,2.5l11.226,0c1.38,0 2.5,-1.119 2.5,-2.5c0,-1.381 -1.12,-2.5 -2.5,-2.5l-11.226,0Z" style="fill-rule:nonzero;"/><path d="M103.697,108.858c2.022,0 3.661,-1.639 3.661,-3.661c0,-2.022 -1.639,-3.662 -3.661,-3.662c-2.022,0 -3.661,1.64 -3.661,3.662c0,2.022 1.639,3.661 3.661,3.661" style="fill:#fff;fill-rule:nonzero;"/><path d="M131.635,82.407c2.327,0 4.214,-1.887 4.214,-4.214c0,-2.328 -1.887,-4.214 -4.214,-4.214c-2.327,0 -4.214,1.886 -4.214,4.214c0,2.327 1.887,4.214 4.214,4.214" style="fill:#ef8181;fill-rule:nonzero;"/><path d="M86.483,75.928c1.76,0 3.187,-1.427 3.187,-3.187c0,-1.761 -1.427,-3.188 -3.187,-3.188c-1.76,0 -3.187,1.427 -3.187,3.188c0,1.76 1.427,3.187 3.187,3.187" style="fill:#ef8181;fill-rule:nonzero;"/><path d="M111.166,88.288c1.042,0 1.886,-0.845 1.886,-1.886c0,-1.042 -0.844,-1.887 -1.886,-1.887c-1.042,0 -1.886,0.845 -1.886,1.887c0,1.041 0.844,1.886 1.886,1.886" style="fill:#ef8181;fill-rule:nonzero;"/><path d="M113.891,130.266c1.363,0 2.467,-1.104 2.467,-2.467c0,-1.363 -1.104,-2.467 -2.467,-2.467c-1.363,0 -2.467,1.104 -2.467,2.467c0,1.363 1.104,2.467 2.467,2.467" style="fill:#fff;fill-rule:nonzero;"/><path d="M123.795,117.202c1.726,0 3.125,-1.399 3.125,-3.125c0,-1.726 -1.399,-3.125 -3.125,-3.125c-1.726,0 -3.125,1.399 -3.125,3.125c0,1.726 1.399,3.125 3.125,3.125" style="fill:#fff;fill-rule:nonzero;"/><path d="M31.591,89.747c5.369,0 10.634,-1.36 15.327,-3.975c1.206,-0.671 1.639,-2.193 0.967,-3.4c-0.672,-1.206 -2.194,-1.639 -3.4,-0.967c-4.392,2.446 -9.383,3.588 -14.426,3.298c-7.087,-0.404 -13.592,-3.545 -18.317,-8.843c-4.724,-5.297 -7.102,-12.117 -6.697,-19.204c0.836,-14.629 13.389,-25.848 28.047,-25.014c12.549,0.717 22.971,10.251 24.781,22.667c0.199,1.367 1.476,2.311 2.834,2.113c1.366,-0.199 2.313,-1.468 2.113,-2.834c-2.151,-14.756 -14.534,-26.085 -29.443,-26.939c-8.412,-0.475 -16.523,2.347 -22.817,7.959c-6.294,5.615 -10.026,13.343 -10.507,21.763c-0.482,8.42 2.345,16.523 7.958,22.817c5.614,6.294 13.343,10.026 21.763,10.507c0.607,0.034 1.213,0.052 1.817,0.052" style="fill-rule:nonzero;"/><path d="M36.736,38.431l-4.774,12.208l-5.292,-12.208l10.066,0Zm-5.16,16.843c1.055,0 1.995,-0.661 2.353,-1.653l5.272,-14.655c0.275,-0.767 0.161,-1.619 -0.308,-2.285c-0.467,-0.666 -1.23,-1.062 -2.044,-1.062l-10.546,0c-0.815,0 -1.577,0.396 -2.045,1.062c-0.469,0.666 -0.583,1.518 -0.308,2.285l5.274,14.655c0.357,0.992 1.297,1.653 2.352,1.653" style="fill:#ff9750;fill-rule:nonzero;"/><path d="M12.712,52.775l4.083,-7.328l7.834,8.776l-11.917,-1.448Zm3.925,-11.693c-0.811,0.072 -1.535,0.535 -1.943,1.24l-5.272,9.133c-0.407,0.705 -0.445,1.563 -0.103,2.302c0.343,0.739 1.024,1.264 1.825,1.408l15.328,2.76c0.148,0.028 0.297,0.04 0.444,0.04c0.881,0 1.712,-0.467 2.164,-1.25c0.528,-0.913 0.425,-2.058 -0.256,-2.864l-10.055,-11.894c-0.527,-0.622 -1.333,-0.953 -2.132,-0.875" style="fill:#ff9750;fill-rule:nonzero;"/><path d="M25.42,61.473l-8.708,9.667l-4.459,-6.959l13.167,-2.708Zm-15.999,3.385l5.273,9.132c0.407,0.705 1.132,1.168 1.942,1.24c0.075,0.007 0.149,0.01 0.223,0.01c0.732,0 1.432,-0.321 1.909,-0.886l10.056,-11.893c0.68,-0.806 0.783,-1.951 0.256,-2.864c-0.528,-0.913 -1.574,-1.398 -2.609,-1.21l-15.328,2.761c-0.801,0.144 -1.481,0.669 -1.824,1.409c-0.343,0.738 -0.305,1.596 0.102,2.301" style="fill:#ff9750;fill-rule:nonzero;"/><path d="M30.504,67.89l6.099,9.619l-8.724,0.381l2.625,-10Zm-4.201,12.803l10.546,0c0.814,0 1.577,-0.397 2.045,-1.063c0.469,-0.666 0.583,-1.517 0.308,-2.284l-5.273,-14.655c-0.357,-0.992 -1.298,-1.654 -2.352,-1.654c-1.055,0 -1.996,0.662 -2.353,1.654l-5.273,14.655c-0.276,0.767 -0.162,1.618 0.307,2.284c0.468,0.666 1.231,1.063 2.045,1.063" style="fill:#ff9750;fill-rule:nonzero;"/><path d="M37.212,54.973l8.5,-9.708l5.459,7.51l-13.959,2.198Zm16.62,-1.216c0.343,-0.738 0.305,-1.598 -0.102,-2.303l-5.273,-9.133c-0.407,-0.705 -1.132,-1.168 -1.942,-1.24c-0.813,-0.075 -1.607,0.255 -2.132,0.876l-10.056,11.894c-0.68,0.805 -0.783,1.951 -0.256,2.864c0.453,0.782 1.284,1.25 2.164,1.25c0.148,0 0.296,-0.013 0.445,-0.04l15.328,-2.761c0.801,-0.144 1.481,-0.669 1.824,-1.407" style="fill:#ff9750;fill-rule:nonzero;"/><path d="M25.42,61.473l-13.167,2.708l4.459,6.959l8.708,-9.667Z" style="fill:#ff9750;fill-rule:nonzero;"/><path d="M30.504,67.89l-2.625,10l8.724,-0.381l-6.099,-9.619Z" style="fill:#ff9750;fill-rule:nonzero;"/><path d="M37.212,54.973l13.959,-2.198l-5.459,-7.51l-8.5,9.708Z" style="fill:#ff9750;fill-rule:nonzero;"/><path d="M36.736,38.431l-10.066,0l5.292,12.208l4.774,-12.208Z" style="fill:#ff9750;fill-rule:nonzero;"/><path d="M12.712,52.775l11.917,1.448l-7.834,-8.776l-4.083,7.328Z" style="fill:#ff9750;fill-rule:nonzero;"/></svg>