<?xml version="1.0" encoding="UTF-8" standalone="no"?><!DOCTYPE svg PUBLIC "-//W3C//DTD SVG 1.1//EN" "http://www.w3.org/Graphics/SVG/1.1/DTD/svg11.dtd"><svg width="100%" height="100%" viewBox="0 0 137 273" version="1.1" xmlns="http://www.w3.org/2000/svg" xmlns:xlink="http://www.w3.org/1999/xlink" xml:space="preserve" xmlns:serif="http://www.serif.com/" style="fill-rule:evenodd;clip-rule:evenodd;stroke-linejoin:round;stroke-miterlimit:1.41421;"><path d="M99.09,117.63c7.256,-13.287 8.602,-27.249 8.615,-27.388c0.146,-1.606 1.139,-2.733 2.219,-2.511c1.079,0.218 1.834,1.697 1.688,3.302c-0.058,0.635 -1.515,15.745 -9.462,30.295c-0.389,0.714 -0.958,1.084 -1.532,1.084c-0.436,0 -0.876,-0.214 -1.241,-0.656c-0.846,-1.022 -0.973,-2.87 -0.287,-4.126m-92.168,-17.66c7.813,33.597 39.429,57.64 61.453,55.889c0.034,-0.003 0.07,-0.005 0.104,-0.005c0.034,0 0.07,0.002 0.105,0.005c22.014,1.707 53.641,-22.292 61.453,-55.889c2.45,-10.533 3.379,-22.705 2.835,-36.024l-128.785,0c-0.545,13.319 0.384,25.491 2.835,36.024" style="fill:#ffc29c;fill-rule:nonzero;"/><path d="M69.129,244.992c-1.381,0 -2.5,-1.119 -2.5,-2.5l0,-0.877l-21.112,26.363c-0.601,0.75 -0.719,1.779 -0.303,2.645c0.417,0.867 1.293,1.418 2.254,1.418l36.057,0c-1.38,0 -2.5,-1.119 -2.5,-2.5c0,-1.381 1.12,-2.5 2.5,-2.5l-30.852,0l16.456,-20.55l16.457,20.55l6.405,0l-20.362,-25.426l0,0.877c0,1.381 -1.119,2.5 -2.5,2.5" style="fill-rule:nonzero;"/><path d="M66.629,161.881l0,80.825c0,1.262 1.023,2.286 2.286,2.286c1.263,0 2.286,-1.024 2.286,-2.286l0,-0.803l0,-80.027c-0.766,-0.007 -1.531,-0.019 -2.286,-0.058c-0.754,0.039 -1.519,0.055 -2.286,0.063" style="fill-rule:nonzero;"/><path d="M14.012,5.866l108.935,0c5.866,20.634 9.2,40.372 9.925,58.081c0.544,13.318 -0.385,25.49 -2.834,36.024c-7.813,33.596 -39.44,57.595 -61.454,55.888c-0.035,-0.003 -0.07,-0.004 -0.105,-0.004c-0.035,0 -0.07,0.001 -0.104,0.004c-22.024,1.751 -53.64,-22.292 -61.453,-55.888c-2.451,-10.534 -3.38,-22.706 -2.835,-36.024c0.724,-17.709 4.059,-37.447 9.925,-58.081m15.772,139.857c11.9,10.484 25.147,16.268 36.723,16.082c0.663,-0.01 1.322,-0.031 1.972,-0.081c0.651,0.05 1.311,0.065 1.971,0.074c0.172,0.004 0.34,0.02 0.512,0.02c11.447,-0.001 24.489,-5.766 36.212,-16.095c13.298,-11.717 22.741,-27.285 26.59,-43.834c6.033,-25.946 3.467,-60.909 -7.226,-98.453c-0.172,-0.603 -0.295,-1.029 -0.358,-1.266c-0.225,-1.25 -0.992,-2.17 -1.903,-2.17l-111.596,0c-0.911,0 -1.677,0.92 -1.904,2.17c-0.061,0.236 -0.184,0.663 -0.356,1.266c-10.693,37.544 -13.259,72.507 -7.226,98.453c3.849,16.549 13.292,32.117 26.589,43.834" style="fill-rule:nonzero;"/><path d="M107.682,51.134c-0.014,1.62 0.858,2.949 1.948,2.968l0.024,0c1.077,0 1.957,-1.289 1.971,-2.897c0.173,-21.366 -3.603,-32.85 -3.763,-33.33c-0.488,-1.449 -1.672,-2.033 -2.646,-1.312c-0.974,0.726 -1.368,2.487 -0.881,3.937c0.035,0.104 3.508,10.674 3.347,30.634" style="fill-rule:nonzero;"/><path d="M25.228,272.04l10.215,0c1.381,0 2.5,-1.119 2.5,-2.5c0,-1.381 -1.119,-2.5 -2.5,-2.5l-10.215,0c-1.381,0 -2.5,1.119 -2.5,2.5c0,1.381 1.119,2.5 2.5,2.5" style="fill-rule:nonzero;"/><path d="M83.526,267.04c-1.381,0 -2.5,1.119 -2.5,2.5c0,1.381 1.119,2.5 2.5,2.5l19.183,0c1.38,0 2.5,-1.119 2.5,-2.5c0,-1.381 -1.12,-2.5 -2.5,-2.5l-10.717,0l-6.405,0l-2.061,0Z" style="fill-rule:nonzero;"/><path d="M99.377,121.755c0.365,0.443 0.805,0.657 1.241,0.657c0.574,0 1.142,-0.37 1.533,-1.084c7.946,-14.55 9.403,-29.66 9.462,-30.296c0.146,-1.605 -0.61,-3.082 -1.689,-3.301c-1.08,-0.221 -2.072,0.905 -2.219,2.511c-0.013,0.14 -1.359,14.1 -8.615,27.387c-0.686,1.258 -0.558,3.104 0.287,4.126" style="fill:#fff;fill-rule:nonzero;"/></svg>