<?xml version="1.0" encoding="UTF-8" standalone="no"?><!DOCTYPE svg PUBLIC "-//W3C//DTD SVG 1.1//EN" "http://www.w3.org/Graphics/SVG/1.1/DTD/svg11.dtd"><svg width="100%" height="100%" viewBox="0 0 100 311" version="1.1" xmlns="http://www.w3.org/2000/svg" xmlns:xlink="http://www.w3.org/1999/xlink" xml:space="preserve" xmlns:serif="http://www.serif.com/" style="fill-rule:evenodd;clip-rule:evenodd;stroke-linejoin:round;stroke-miterlimit:1.41421;"><path d="M28.57,79.432c3.176,0 5.75,2.574 5.75,5.75c0,3.176 -2.574,5.75 -5.75,5.75c-3.176,0 -5.75,-2.574 -5.75,-5.75c0,-3.176 2.574,-5.75 5.75,-5.75m7.833,41c0,1.151 -0.932,2.083 -2.083,2.083c-1.15,0 -2.083,-0.932 -2.083,-2.083c0,-1.151 0.933,-2.083 2.083,-2.083c1.151,0 2.083,0.932 2.083,2.083m9.191,25.551c2.728,0 4.947,2.219 4.947,4.946c0,2.727 -2.219,4.946 -4.947,4.946c-2.726,0 -4.945,-2.219 -4.945,-4.946c0,-2.727 2.219,-4.946 4.945,-4.946m9.678,-41.189c1.869,0 3.383,1.515 3.383,3.383c0,1.868 -1.514,3.383 -3.383,3.383c-1.868,0 -3.382,-1.515 -3.382,-3.383c0,-1.868 1.514,-3.383 3.382,-3.383m14.715,-36.32c1.45,0 2.625,1.175 2.625,2.625c0,1.449 -1.175,2.625 -2.625,2.625c-1.45,0 -2.625,-1.176 -2.625,-2.625c0,-1.45 1.175,-2.625 2.625,-2.625m9.828,41.053c1.4,-0.109 2.564,0.968 2.646,2.345l1.856,30.825c0.083,1.378 -0.967,2.563 -2.345,2.646c-0.05,0.004 -0.102,0.005 -0.152,0.005c-1.312,0 -2.414,-1.023 -2.493,-2.35l-1.857,-30.825c-0.083,-1.378 0.967,-2.563 2.345,-2.646m-74.816,33.808c0.001,24.488 19.983,44.472 44.546,44.472c24.562,0 44.546,-19.984 44.546,-44.546l-2.348,-78.71l-84.395,0l-2.349,78.784Z" style="fill:#f9d3b7;fill-rule:nonzero;"/><path d="M33.089,305.733l16.457,-20.549l16.456,20.549l-32.913,0Zm16.457,-22.048c-1.381,0 -2.5,-1.119 -2.5,-2.5l0,-0.877l-21.113,26.362c-0.601,0.75 -0.719,1.779 -0.303,2.645c0.417,0.867 1.293,1.418 2.254,1.418l43.323,0c-1.381,0 -2.5,-1.119 -2.5,-2.5c0,-1.381 1.119,-2.5 2.5,-2.5l1.2,0l-20.361,-25.425l0,0.877c0,1.381 -1.119,2.5 -2.5,2.5" style="fill-rule:nonzero;"/><path d="M47.046,192.743l0,88.441c0,1.381 1.119,2.5 2.5,2.5c1.381,0 2.5,-1.119 2.5,-2.5l0,-0.877l0,-87.564c-0.828,0.041 -1.662,0.063 -2.5,0.063c-0.838,0 -1.672,-0.022 -2.5,-0.063" style="fill-rule:nonzero;"/><path d="M6.918,59.551l0.58,0l1.626,-54.551l80.843,0l1.627,54.551l1.237,0c1.381,0 2.5,1.119 2.5,2.5c0,1.381 -1.119,2.5 -2.5,2.5l-1.088,0l2.348,78.71c0,24.562 -19.984,44.546 -44.546,44.546c-24.563,0 -44.545,-19.984 -44.546,-44.472l2.349,-78.784l-0.43,0c-1.381,0 -2.5,-1.119 -2.5,-2.5c0,-1.381 1.119,-2.5 2.5,-2.5m40.128,133.192c0.828,0.042 1.662,0.064 2.5,0.064c0.838,0 1.672,-0.022 2.5,-0.064c26.162,-1.306 47.045,-23.003 47.044,-49.556l-4.197,-140.761c-0.04,-1.352 -1.148,-2.426 -2.499,-2.426l-85.697,0c-1.351,0 -2.459,1.074 -2.499,2.426l-4.198,140.835c0,26.481 20.884,48.176 47.046,49.482" style="fill-rule:nonzero;"/><path d="M6.918,64.551l85.913,0c1.381,0 2.5,-1.119 2.5,-2.5c0,-1.381 -1.119,-2.5 -2.5,-2.5l-1.237,0l-84.096,0l-0.58,0c-1.381,0 -2.5,1.119 -2.5,2.5c0,1.381 1.119,2.5 2.5,2.5" style="fill-rule:nonzero;"/><path d="M81.82,145.348c0.05,0 0.102,-0.001 0.152,-0.005c1.378,-0.083 2.428,-1.267 2.345,-2.645l-1.856,-30.826c-0.082,-1.377 -1.246,-2.454 -2.646,-2.344c-1.378,0.083 -2.428,1.267 -2.345,2.645l1.857,30.825c0.079,1.328 1.181,2.35 2.493,2.35" style="fill-rule:nonzero;"/><path d="M45.595,155.875c2.728,0 4.946,-2.219 4.946,-4.946c0,-2.727 -2.218,-4.946 -4.946,-4.946c-2.727,0 -4.945,2.219 -4.945,4.946c0,2.727 2.218,4.946 4.945,4.946" style="fill:#fff;fill-rule:nonzero;"/><path d="M55.273,111.56c1.869,0 3.383,-1.515 3.383,-3.383c0,-1.868 -1.514,-3.383 -3.383,-3.383c-1.868,0 -3.382,1.515 -3.382,3.383c0,1.868 1.514,3.383 3.382,3.383" style="fill:#fff;fill-rule:nonzero;"/><path d="M68.707,308.233c0,1.381 1.119,2.5 2.5,2.5l12.643,0c1.38,0 2.5,-1.119 2.5,-2.5c0,-1.381 -1.12,-2.5 -2.5,-2.5l-11.443,0l-1.2,0c-1.381,0 -2.5,1.119 -2.5,2.5" style="fill-rule:nonzero;"/><path d="M15.24,305.733c-1.381,0 -2.5,1.119 -2.5,2.5c0,1.381 1.119,2.5 2.5,2.5l4.699,0c1.381,0 2.5,-1.119 2.5,-2.5c0,-1.381 -1.119,-2.5 -2.5,-2.5l-4.699,0Z" style="fill-rule:nonzero;"/><circle cx="71.487" cy="25.932" r="5.5" style="fill:#f9d3b7;"/><path d="M28.57,90.932c3.176,0 5.75,-2.574 5.75,-5.75c0,-3.176 -2.574,-5.75 -5.75,-5.75c-3.176,0 -5.75,2.574 -5.75,5.75c0,3.176 2.574,5.75 5.75,5.75" style="fill:#fff;fill-rule:nonzero;"/><ellipse cx="45.232" cy="51.849" rx="4.083" ry="4.084" style="fill:#f9d3b7;"/><ellipse cx="30.82" cy="15.599" rx="2.833" ry="2.833" style="fill:#f9d3b7;"/><path d="M32.237,120.432c0,1.151 0.933,2.083 2.083,2.083c1.151,0 2.084,-0.932 2.084,-2.083c0,-1.151 -0.933,-2.083 -2.084,-2.083c-1.15,0 -2.083,0.932 -2.083,2.083" style="fill:#fff;fill-rule:nonzero;"/><path d="M69.987,73.724c1.45,0 2.625,-1.175 2.625,-2.625c0,-1.45 -1.175,-2.625 -2.625,-2.625c-1.45,0 -2.625,1.175 -2.625,2.625c0,1.45 1.175,2.625 2.625,2.625" style="fill:#fff;fill-rule:nonzero;"/></svg>