<?xml version="1.0" encoding="UTF-8" standalone="no"?><!DOCTYPE svg PUBLIC "-//W3C//DTD SVG 1.1//EN" "http://www.w3.org/Graphics/SVG/1.1/DTD/svg11.dtd"><svg width="100%" height="100%" viewBox="0 0 137 256" version="1.1" xmlns="http://www.w3.org/2000/svg" xmlns:xlink="http://www.w3.org/1999/xlink" xml:space="preserve" xmlns:serif="http://www.serif.com/" style="fill-rule:evenodd;clip-rule:evenodd;stroke-linejoin:round;stroke-miterlimit:1.41421;"><path d="M99.09,100.262c7.256,-11.325 8.602,-23.225 8.615,-23.344c0.146,-1.369 1.139,-2.329 2.219,-2.14c1.079,0.186 1.834,1.446 1.688,2.814c-0.058,0.542 -1.515,13.421 -9.462,25.822c-0.389,0.609 -0.958,0.924 -1.532,0.924c-0.436,0 -0.876,-0.182 -1.241,-0.559c-0.846,-0.871 -0.973,-2.446 -0.287,-3.517m-92.168,-15.052c7.813,28.636 39.429,49.129 61.453,47.637c0.034,-0.003 0.07,-0.004 0.104,-0.004c0.034,0 0.07,0.001 0.105,0.004c22.014,1.455 53.641,-19.001 61.453,-47.637c2.45,-8.978 3.379,-19.353 2.835,-30.705l-128.785,0c-0.545,11.352 0.384,21.727 2.835,30.705" style="fill:#f8eec4;fill-rule:nonzero;"/><path d="M68.496,228.575c-1.381,0 -2.5,-1.119 -2.5,-2.5l0,-0.877l-21.112,26.363c-0.601,0.75 -0.719,1.779 -0.303,2.645c0.417,0.867 1.293,1.418 2.254,1.418l36.057,0c-1.38,0 -2.5,-1.119 -2.5,-2.5c0,-1.381 1.12,-2.5 2.5,-2.5l-30.852,0l16.456,-20.55l16.457,20.55l6.405,0l-20.362,-25.426l0,0.877c0,1.381 -1.119,2.5 -2.5,2.5" style="fill-rule:nonzero;"/><path d="M65.996,137.688l0,88.388c0,1.38 1.119,2.5 2.5,2.5c1.381,0 2.5,-1.12 2.5,-2.5l0,-0.878l0,-87.516c-0.838,-0.008 -1.675,-0.021 -2.5,-0.063c-0.825,0.042 -1.661,0.06 -2.5,0.069" style="fill-rule:nonzero;"/><path d="M14.012,5l108.935,0c5.866,17.587 9.2,34.411 9.925,49.505c0.544,11.352 -0.385,21.727 -2.834,30.705c-7.813,28.636 -39.44,49.092 -61.454,47.637c-0.035,-0.003 -0.07,-0.004 -0.105,-0.004c-0.035,0 -0.07,0.001 -0.104,0.004c-22.024,1.492 -53.64,-19.001 -61.453,-47.637c-2.451,-8.978 -3.38,-19.353 -2.835,-30.705c0.724,-15.094 4.059,-31.918 9.925,-49.505m15.772,119.207c11.9,8.936 25.147,13.866 36.723,13.708c0.663,-0.009 1.322,-0.027 1.972,-0.069c0.651,0.042 1.311,0.055 1.971,0.063c0.172,0.003 0.34,0.017 0.512,0.017c11.447,-0.001 24.489,-4.915 36.212,-13.719c13.298,-9.987 22.741,-23.256 26.59,-37.362c6.033,-22.115 3.467,-51.916 -7.226,-83.916c-0.172,-0.514 -0.295,-0.877 -0.358,-1.079c-0.225,-1.066 -0.992,-1.85 -1.903,-1.85l-111.596,0c-0.911,0 -1.677,0.784 -1.904,1.85c-0.061,0.201 -0.184,0.565 -0.356,1.079c-10.693,32 -13.259,61.801 -7.226,83.916c3.849,14.106 13.292,27.375 26.589,37.362" style="fill-rule:nonzero;"/><path d="M107.682,43.584c-0.014,1.381 0.858,2.514 1.948,2.53l0.024,0c1.077,0 1.957,-1.099 1.971,-2.469c0.173,-18.212 -3.603,-28 -3.763,-28.409c-0.488,-1.235 -1.672,-1.733 -2.646,-1.118c-0.974,0.618 -1.368,2.119 -0.881,3.355c0.035,0.089 3.508,9.098 3.347,26.111" style="fill-rule:nonzero;"/><path d="M24.595,255.624l10.215,0c1.381,0 2.5,-1.119 2.5,-2.5c0,-1.381 -1.119,-2.5 -2.5,-2.5l-10.215,0c-1.381,0 -2.5,1.119 -2.5,2.5c0,1.381 1.119,2.5 2.5,2.5" style="fill-rule:nonzero;"/><path d="M82.892,250.624c-1.381,0 -2.5,1.119 -2.5,2.5c0,1.381 1.119,2.5 2.5,2.5l19.183,0c1.38,0 2.5,-1.119 2.5,-2.5c0,-1.381 -1.12,-2.5 -2.5,-2.5l-10.717,0l-6.405,0l-2.061,0Z" style="fill-rule:nonzero;"/><path d="M99.377,103.778c0.365,0.377 0.805,0.56 1.241,0.56c0.574,0 1.142,-0.316 1.533,-0.924c7.946,-12.402 9.403,-25.281 9.462,-25.823c0.146,-1.368 -0.61,-2.627 -1.689,-2.814c-1.08,-0.188 -2.072,0.772 -2.219,2.141c-0.013,0.119 -1.359,12.018 -8.615,23.343c-0.686,1.072 -0.558,2.646 0.287,3.517" style="fill:#fff;fill-rule:nonzero;"/></svg>