<?xml version="1.0" encoding="UTF-8" standalone="no"?><!DOCTYPE svg PUBLIC "-//W3C//DTD SVG 1.1//EN" "http://www.w3.org/Graphics/SVG/1.1/DTD/svg11.dtd"><svg width="100%" height="100%" viewBox="0 0 174 256" version="1.1" xmlns="http://www.w3.org/2000/svg" xmlns:xlink="http://www.w3.org/1999/xlink" xml:space="preserve" xmlns:serif="http://www.serif.com/" style="fill-rule:evenodd;clip-rule:evenodd;stroke-linejoin:round;stroke-miterlimit:1.41421;"><path d="M125.647,100.262c9.201,-11.325 10.908,-23.225 10.924,-23.344c0.186,-1.369 1.444,-2.329 2.814,-2.14c1.368,0.186 2.326,1.446 2.141,2.814c-0.074,0.542 -1.922,13.421 -11.998,25.822c-0.494,0.609 -1.215,0.924 -1.943,0.924c-0.553,0 -1.111,-0.182 -1.574,-0.559c-1.072,-0.871 -1.234,-2.446 -0.364,-3.517m-116.87,-15.052c9.907,28.636 49.997,49.129 77.923,47.637c0.044,-0.003 0.089,-0.004 0.133,-0.004c0.043,0 0.088,0.001 0.132,0.004c27.914,1.455 68.018,-19.001 77.924,-47.637c3.106,-8.978 4.284,-19.353 3.594,-30.705l-163.3,0c-0.691,11.352 0.487,21.727 3.594,30.705" style="fill:#aa0909;fill-rule:nonzero;"/><path d="M86.832,228.803c-1.381,0 -2.5,-1.119 -2.5,-2.5l0,-0.877l-21.112,26.363c-0.601,0.75 -0.719,1.779 -0.303,2.645c0.417,0.867 1.293,1.418 2.254,1.418l36.057,0c-1.38,0 -2.5,-1.119 -2.5,-2.5c0,-1.381 1.12,-2.5 2.5,-2.5l-30.852,0l16.456,-20.55l16.457,20.55l6.405,0l-20.362,-25.426l0,0.877c0,1.381 -1.119,2.5 -2.5,2.5" style="fill-rule:nonzero;"/><path d="M84.332,137.915l0,88.388c0,1.38 1.119,2.5 2.5,2.5c1.381,0 2.5,-1.12 2.5,-2.5l0,-0.878l0,-87.516c-0.838,-0.008 -1.675,-0.021 -2.5,-0.063c-0.825,0.042 -1.661,0.06 -2.5,0.069" style="fill-rule:nonzero;"/><path d="M17.767,5l138.131,0c7.438,17.587 11.666,34.411 12.585,49.505c0.69,11.352 -0.488,21.727 -3.594,30.705c-9.906,28.636 -50.01,49.092 -77.924,47.637c-0.044,-0.003 -0.089,-0.004 -0.133,-0.004c-0.044,0 -0.088,0.001 -0.132,0.004c-27.926,1.492 -68.016,-19.001 -77.923,-47.637c-3.107,-8.978 -4.285,-19.353 -3.594,-30.705c0.917,-15.094 5.146,-31.918 12.584,-49.505m20,119.207c15.089,8.936 31.886,13.866 46.565,13.708c0.84,-0.009 1.676,-0.027 2.5,-0.069c0.826,0.042 1.662,0.055 2.5,0.063c0.218,0.003 0.43,0.017 0.649,0.017c14.515,-0.001 31.052,-4.915 45.917,-13.719c16.862,-9.987 28.836,-23.256 33.716,-37.362c7.65,-22.115 4.396,-51.916 -9.163,-83.916c-0.218,-0.514 -0.374,-0.877 -0.453,-1.079c-0.286,-1.066 -1.258,-1.85 -2.414,-1.85l-141.504,0c-1.155,0 -2.127,0.784 -2.414,1.85c-0.078,0.201 -0.234,0.565 -0.452,1.079c-13.559,32 -16.812,61.801 -9.162,83.916c4.88,14.106 16.854,27.375 33.715,37.362" style="fill-rule:nonzero;"/><path d="M136.541,43.584c-0.017,1.381 1.089,2.514 2.47,2.53l0.031,0c1.366,0 2.482,-1.099 2.499,-2.469c0.22,-18.212 -4.568,-28 -4.771,-28.409c-0.619,-1.235 -2.12,-1.733 -3.355,-1.118c-1.235,0.618 -1.735,2.119 -1.118,3.355c0.045,0.089 4.449,9.098 4.244,26.111" style="fill-rule:nonzero;"/><path d="M42.931,255.851l10.215,0c1.381,0 2.5,-1.119 2.5,-2.5c0,-1.381 -1.119,-2.5 -2.5,-2.5l-10.215,0c-1.381,0 -2.5,1.119 -2.5,2.5c0,1.381 1.119,2.5 2.5,2.5" style="fill-rule:nonzero;"/><path d="M101.229,250.851c-1.381,0 -2.5,1.119 -2.5,2.5c0,1.381 1.119,2.5 2.5,2.5l19.183,0c1.38,0 2.5,-1.119 2.5,-2.5c0,-1.381 -1.12,-2.5 -2.5,-2.5l-10.717,0l-6.405,0l-2.061,0Z" style="fill-rule:nonzero;"/><path d="M126.011,103.778c0.463,0.377 1.021,0.56 1.574,0.56c0.728,0 1.448,-0.316 1.943,-0.924c10.076,-12.402 11.923,-25.281 11.998,-25.823c0.185,-1.368 -0.773,-2.627 -2.141,-2.814c-1.37,-0.188 -2.628,0.772 -2.814,2.141c-0.016,0.119 -1.723,12.018 -10.924,23.343c-0.87,1.072 -0.708,2.646 0.364,3.517" style="fill:#fff;fill-rule:nonzero;"/></svg>